<svg width="40" height="40" viewBox="0 0 40 40" fill="none" xmlns="http://www.w3.org/2000/svg">
<path d="M13.3333 11.6667C12.4129 11.6667 11.6667 12.4129 11.6667 13.3333C11.6667 14.2538 12.4129 15 13.3333 15H33.3333C34.2538 15 35 14.2538 35 13.3333C35 12.4129 34.2538 11.6667 33.3333 11.6667H13.3333Z" fill="black"/>
<path d="M8.33333 20C8.33333 19.0795 9.07953 18.3333 10 18.3333H30C30.9205 18.3333 31.6667 19.0795 31.6667 20C31.6667 20.9205 30.9205 21.6667 30 21.6667H10C9.07953 21.6667 8.33333 20.9205 8.33333 20Z" fill="black"/>
<path d="M5 26.6667C5 25.7462 5.74619 25 6.66667 25H26.6667C27.5871 25 28.3333 25.7462 28.3333 26.6667C28.3333 27.5871 27.5871 28.3333 26.6667 28.3333H6.66667C5.74619 28.3333 5 27.5871 5 26.6667Z" fill="black"/>
</svg>
