<svg width="36" height="36" viewBox="0 0 36 36" fill="none" xmlns="http://www.w3.org/2000/svg">
<path d="M12.855 26.895C10.515 25.275 9 22.56 9 19.5C9 14.535 13.035 10.5 18 10.5C22.965 10.5 27 14.535 27 19.5C27 22.575 25.455 25.29 23.1 26.91" fill="black" fill-opacity="0.16"/>
<path d="M18 6V3M4.5 19.5H1.5M34.5 19.5H31.5M29.6673 7.83274L27.5459 9.95406M8.45402 9.95406L6.3327 7.83274M6 27H30M12 31.5H24M12.855 26.895C10.515 25.275 9 22.56 9 19.5C9 14.535 13.035 10.5 18 10.5C22.965 10.5 27 14.535 27 19.5C27 22.575 25.455 25.29 23.1 26.91L12.855 26.895Z" stroke="black" stroke-width="1.5" stroke-miterlimit="10" stroke-linecap="round"/>
</svg>
