<svg width="72" height="119" viewBox="0 0 72 119" fill="none" xmlns="http://www.w3.org/2000/svg">
<rect x="0.5" y="0.5" width="71" height="118" rx="4.5" stroke="#7B61FF" stroke-dasharray="10 5"/>
<path fill-rule="evenodd" clip-rule="evenodd" d="M22 33C22 36.94 23.9977 40.3961 27 42.3388V39.8265C25.1719 38.1872 24 35.7548 24 33C24 27.9605 27.9218 24 32.6083 24C36.5839 24 40.0091 26.85 40.9569 30.7911L40.9599 30.7899C41.0937 31.3367 41.1791 31.9037 41.2108 32.4855C41.8339 32.1732 42.5272 32 43.2493 32C45.8053 32 48 34.1696 48 37C48 39.1518 46.7314 40.9218 45 41.6467V43.7623C47.8796 42.9627 50 40.2381 50 37C50 33.134 46.9776 30 43.2493 30C43.1054 30 42.9626 30.0047 42.821 30.0139C41.5661 25.3898 37.469 22 32.6083 22C26.7495 22 22 26.9249 22 33ZM37.2565 44.5204L38 44L37.2565 43.4796L37.4142 42.5858L36.5204 42.7435L36 42L35.4796 42.7435L34.5858 42.5858L34.7435 43.4796L34 44L34.7435 44.5204L34.5858 45.4142L35.4796 45.2565L36 46L36.5204 45.2565L37.4142 45.4142L37.2565 44.5204ZM34.8284 40L34.0849 40.5204L34.2426 41.4142L33.3489 41.2565L32.8284 42L32.308 41.2565L31.4142 41.4142L31.572 40.5204L30.8284 40L31.572 39.4796L31.4142 38.5858L32.308 38.7435L32.8284 38L33.3489 38.7435L34.2426 38.5858L34.0849 39.4796L34.8284 40ZM34.0849 48.5204L34.8284 48L34.0849 47.4796L34.2426 46.5858L33.3489 46.7435L32.8284 46L32.308 46.7435L31.4142 46.5858L31.572 47.4796L30.8284 48L31.572 48.5204L31.4142 49.4142L32.308 49.2565L32.8284 50L33.3489 49.2565L34.2426 49.4142L34.0849 48.5204ZM44 44L43.2565 44.5204L43.4142 45.4142L42.5204 45.2565L42 46L41.4796 45.2565L40.5858 45.4142L40.7435 44.5204L40 44L40.7435 43.4796L40.5858 42.5858L41.4796 42.7435L42 42L42.5204 42.7435L43.4142 42.5858L43.2565 43.4796L44 44ZM40.0849 40.5204L40.8284 40L40.0849 39.4796L40.2426 38.5858L39.3489 38.7435L38.8284 38L38.308 38.7435L37.4142 38.5858L37.572 39.4796L36.8284 40L37.572 40.5204L37.4142 41.4142L38.308 41.2565L38.8284 42L39.3489 41.2565L40.2426 41.4142L40.0849 40.5204ZM40.8284 48L40.0849 48.5204L40.2426 49.4142L39.3489 49.2565L38.8284 50L38.308 49.2565L37.4142 49.4142L37.572 48.5204L36.8284 48L37.572 47.4796L37.4142 46.5858L38.308 46.7435L38.8284 46L39.3489 46.7435L40.2426 46.5858L40.0849 47.4796L40.8284 48ZM31.0849 44.5204L31.8284 44L31.0849 43.4796L31.2426 42.5858L30.3489 42.7435L29.8284 42L29.308 42.7435L28.4142 42.5858L28.572 43.4796L27.8284 44L28.572 44.5204L28.4142 45.4142L29.308 45.2565L29.8284 46L30.3489 45.2565L31.2426 45.4142L31.0849 44.5204Z" fill="white"/>
<path fill-rule="evenodd" clip-rule="evenodd" d="M22 80C22 83.94 23.9977 87.3961 27 89.3388V86.8265C25.1719 85.1872 24 82.7548 24 80C24 74.9605 27.9218 71 32.6083 71C36.5839 71 40.0091 73.85 40.9569 77.7911L40.9599 77.7899C41.0937 78.3367 41.1791 78.9037 41.2108 79.4855C41.8339 79.1732 42.5272 79 43.2493 79C45.8053 79 48 81.1696 48 84C48 86.1518 46.7314 87.9218 45 88.6467V90.7623C47.8796 89.9627 50 87.2381 50 84C50 80.134 46.9776 77 43.2493 77C43.1054 77 42.9626 77.0047 42.821 77.0139C41.5661 72.3898 37.469 69 32.6083 69C26.7495 69 22 73.9249 22 80ZM37.2565 91.5204L38 91L37.2565 90.4796L37.4142 89.5858L36.5204 89.7435L36 89L35.4796 89.7435L34.5858 89.5858L34.7435 90.4796L34 91L34.7435 91.5204L34.5858 92.4142L35.4796 92.2565L36 93L36.5204 92.2565L37.4142 92.4142L37.2565 91.5204ZM34.8284 87L34.0849 87.5204L34.2426 88.4142L33.3489 88.2565L32.8284 89L32.308 88.2565L31.4142 88.4142L31.572 87.5204L30.8284 87L31.572 86.4796L31.4142 85.5858L32.308 85.7435L32.8284 85L33.3489 85.7435L34.2426 85.5858L34.0849 86.4796L34.8284 87ZM34.0849 95.5204L34.8284 95L34.0849 94.4796L34.2426 93.5858L33.3489 93.7435L32.8284 93L32.308 93.7435L31.4142 93.5858L31.572 94.4796L30.8284 95L31.572 95.5204L31.4142 96.4142L32.308 96.2565L32.8284 97L33.3489 96.2565L34.2426 96.4142L34.0849 95.5204ZM44 91L43.2565 91.5204L43.4142 92.4142L42.5204 92.2565L42 93L41.4796 92.2565L40.5858 92.4142L40.7435 91.5204L40 91L40.7435 90.4796L40.5858 89.5858L41.4796 89.7435L42 89L42.5204 89.7435L43.4142 89.5858L43.2565 90.4796L44 91ZM40.0849 87.5204L40.8284 87L40.0849 86.4796L40.2426 85.5858L39.3489 85.7435L38.8284 85L38.308 85.7435L37.4142 85.5858L37.572 86.4796L36.8284 87L37.572 87.5204L37.4142 88.4142L38.308 88.2565L38.8284 89L39.3489 88.2565L40.2426 88.4142L40.0849 87.5204ZM40.8284 95L40.0849 95.5204L40.2426 96.4142L39.3489 96.2565L38.8284 97L38.308 96.2565L37.4142 96.4142L37.572 95.5204L36.8284 95L37.572 94.4796L37.4142 93.5858L38.308 93.7435L38.8284 93L39.3489 93.7435L40.2426 93.5858L40.0849 94.4796L40.8284 95ZM31.0849 91.5204L31.8284 91L31.0849 90.4796L31.2426 89.5858L30.3489 89.7435L29.8284 89L29.308 89.7435L28.4142 89.5858L28.572 90.4796L27.8284 91L28.572 91.5204L28.4142 92.4142L29.308 92.2565L29.8284 93L30.3489 92.2565L31.2426 92.4142L31.0849 91.5204Z" fill="url(#paint0_linear_8_1221)"/>
<defs>
<linearGradient id="paint0_linear_8_1221" x1="36" y1="69" x2="36" y2="97" gradientUnits="userSpaceOnUse">
<stop stop-color="#B2D4F7"/>
<stop offset="1" stop-color="#D9E2F3"/>
</linearGradient>
</defs>
</svg>
