<svg width="72" height="119" viewBox="0 0 72 119" fill="none" xmlns="http://www.w3.org/2000/svg">
<rect x="0.5" y="0.5" width="71" height="118" rx="4.5" stroke="#7B61FF" stroke-dasharray="10 5"/>
<path fill-rule="evenodd" clip-rule="evenodd" d="M30.2565 27.5204L31 27L30.2565 26.4796L30.4142 25.5858L29.5204 25.7435L29 25L28.4796 25.7435L27.5858 25.5858L27.7435 26.4796L27 27L27.7435 27.5204L27.5858 28.4142L28.4796 28.2565L29 29L29.5204 28.2565L30.4142 28.4142L30.2565 27.5204ZM33.4281 31.5204L34.1716 31L33.4281 30.4796L33.5858 29.5858L32.6921 29.7435L32.1716 29L31.6512 29.7435L30.7574 29.5858L30.9152 30.4796L30.1716 31L30.9152 31.5204L30.7574 32.4142L31.6512 32.2565L32.1716 33L32.6921 32.2565L33.5858 32.4142L33.4281 31.5204ZM40.1716 31L39.4281 31.5204L39.5858 32.4142L38.6921 32.2565L38.1716 33L37.6512 32.2565L36.7574 32.4142L36.9152 31.5204L36.1716 31L36.9152 30.4796L36.7574 29.5858L37.6512 29.7435L38.1716 29L38.6921 29.7435L39.5858 29.5858L39.4281 30.4796L40.1716 31ZM36.2565 27.5204L37 27L36.2565 26.4796L36.4142 25.5858L35.5204 25.7435L35 25L34.4796 25.7435L33.5858 25.5858L33.7435 26.4796L33 27L33.7435 27.5204L33.5858 28.4142L34.4796 28.2565L35 29L35.5204 28.2565L36.4142 28.4142L36.2565 27.5204ZM28 31L27.2565 31.5204L27.4142 32.4142L26.5204 32.2565L26 33L25.4796 32.2565L24.5858 32.4142L24.7435 31.5204L24 31L24.7435 30.4796L24.5858 29.5858L25.4796 29.7435L26 29L26.5204 29.7435L27.4142 29.5858L27.2565 30.4796L28 31ZM43.0172 31.2485L43.018 31.248C43.2841 31.0978 43.581 31.0107 43.886 30.9933C44.1913 30.9758 44.4966 31.0287 44.7782 31.1478C45.0599 31.267 45.3105 31.4492 45.5106 31.6805C45.7108 31.9118 45.8552 32.1859 45.9328 32.4818C46.0104 32.7777 46.019 33.0875 45.958 33.3873C45.897 33.687 45.7681 33.9688 45.5811 34.2108C45.3941 34.4529 45.1541 34.6488 44.8795 34.7834C44.6049 34.9181 44.303 34.9879 43.9972 34.9875L43.9972 34.9896H24V36.9896H43.9944V36.9899C44.6066 36.9908 45.2108 36.851 45.7606 36.5815C45.8403 36.5424 45.9185 36.5008 45.9952 36.4567C46.4474 36.1963 46.8451 35.8496 47.1651 35.4352C47.5395 34.9507 47.7976 34.3866 47.9197 33.7865C48.0417 33.1864 48.0245 32.5663 47.8692 31.9739C47.7139 31.3816 47.4248 30.8328 47.0241 30.3698C46.6234 29.9068 46.1218 29.542 45.5579 29.3035C45.0757 29.0995 44.559 28.9926 44.0373 28.9877C43.9489 28.9869 43.8603 28.989 43.7718 28.9941C43.1613 29.029 42.567 29.2034 42.0345 29.5039L42.0325 29.505L42.0336 29.5071L43.0172 31.2485ZM24 41.0524L37.2058 45.7505L37.2057 45.7509C37.6836 45.9416 38.1977 46.0245 38.7113 45.9937C38.9088 45.9819 39.1043 45.9533 39.2959 45.9087C39.6026 45.8372 39.8991 45.7244 40.1771 45.5727C40.6288 45.3263 41.0206 44.9832 41.3246 44.5679C41.6286 44.1526 41.8372 43.6754 41.9357 43.1702C42.0342 42.6651 42.0201 42.1444 41.8943 41.6453C41.7686 41.1462 41.5344 40.681 41.2083 40.2829C41.0076 40.0378 40.7752 39.8218 40.5178 39.6403C40.357 39.5269 40.1866 39.427 40.008 39.3418C39.5443 39.1206 39.0376 39.0042 38.5239 39.001V38.998L24 38.9979V41.0524ZM38.5103 40.9982L29.8151 40.9981L37.9842 43.9044L37.9835 43.9064C38.1776 43.9781 38.3847 44.0088 38.5916 43.9963C38.8115 43.9832 39.0258 43.9216 39.2193 43.8161C39.4127 43.7105 39.5805 43.5636 39.7106 43.3858C39.8408 43.208 39.9302 43.0036 39.9723 42.7873C40.0145 42.5709 40.0085 42.348 39.9546 42.1343C39.9008 41.9205 39.8005 41.7213 39.6608 41.5508C39.5212 41.3803 39.3457 41.2427 39.1468 41.1478C38.9483 41.0531 38.7312 41.0033 38.5112 41.0019L38.5103 41.0019L38.5103 41.0015L38.5103 40.9982Z" fill="white"/>
<path fill-rule="evenodd" clip-rule="evenodd" d="M43.018 78.248L43.0172 78.2485L42.0336 76.5071L42.0325 76.505L42.0345 76.5039C42.567 76.2034 43.1613 76.029 43.7718 75.9941C43.8603 75.989 43.9489 75.9869 44.0373 75.9877C44.559 75.9926 45.0757 76.0995 45.5579 76.3035C46.1218 76.542 46.6234 76.9068 47.0241 77.3698C47.4248 77.8328 47.7139 78.3816 47.8692 78.9739C48.0245 79.5663 48.0417 80.1864 47.9197 80.7865C47.7976 81.3866 47.5395 81.9507 47.1651 82.4352C46.8451 82.8496 46.4474 83.1963 45.9952 83.4567C45.9185 83.5008 45.8403 83.5424 45.7606 83.5815C45.2108 83.851 44.6066 83.9908 43.9944 83.9899V83.9897H24V81.9897H43.9972L43.9972 81.9875C44.303 81.9879 44.6049 81.9181 44.8795 81.7834C45.1541 81.6488 45.3941 81.4529 45.5811 81.2108C45.7681 80.9688 45.897 80.687 45.958 80.3873C46.019 80.0875 46.0104 79.7777 45.9328 79.4818C45.8552 79.1859 45.7108 78.9118 45.5106 78.6805C45.3105 78.4492 45.0599 78.267 44.7782 78.1478C44.4966 78.0287 44.1913 77.9758 43.886 77.9933C43.581 78.0107 43.2841 78.0978 43.018 78.248ZM37.2058 92.7506L24 88.0525V85.998L38.5239 85.9981V86.0011C39.0376 86.0043 39.5443 86.1207 40.008 86.3419C40.1866 86.4271 40.357 86.527 40.5178 86.6404C40.7752 86.8219 41.0076 87.0379 41.2083 87.283C41.5344 87.6811 41.7686 88.1463 41.8943 88.6454C42.0201 89.1445 42.0342 89.6652 41.9357 90.1703C41.8372 90.6755 41.6286 91.1527 41.3246 91.568C41.0206 91.9833 40.6288 92.3264 40.1771 92.5728C39.8991 92.7245 39.6026 92.8373 39.2959 92.9088C39.1043 92.9534 38.9088 92.982 38.7113 92.9938C38.1977 93.0246 37.6836 92.9417 37.2057 92.751L37.2058 92.7506ZM29.8151 87.9982L38.5103 87.9983L38.5103 88.0016L38.5103 88.002L38.5112 88.002C38.7312 88.0034 38.9483 88.0532 39.1468 88.1479C39.3457 88.2428 39.5212 88.3804 39.6608 88.5509C39.8005 88.7214 39.9008 88.9206 39.9546 89.1344C40.0085 89.3481 40.0145 89.571 39.9723 89.7874C39.9302 90.0037 39.8408 90.2081 39.7106 90.3859C39.5805 90.5637 39.4127 90.7106 39.2193 90.8162C39.0258 90.9217 38.8115 90.9833 38.5916 90.9964C38.3847 91.0089 38.1776 90.9782 37.9835 90.9065L37.9842 90.9045L29.8151 87.9982Z" fill="url(#paint0_linear_8_1394)"/>
<path fill-rule="evenodd" clip-rule="evenodd" d="M31 74L30.2565 74.5204L30.4142 75.4142L29.5204 75.2565L29 76L28.4796 75.2565L27.5858 75.4142L27.7435 74.5204L27 74L27.7435 73.4796L27.5858 72.5858L28.4796 72.7435L29 72L29.5204 72.7435L30.4142 72.5858L30.2565 73.4796L31 74ZM34.1716 78L33.4281 78.5204L33.5858 79.4142L32.6921 79.2565L32.1716 80L31.6512 79.2565L30.7574 79.4142L30.9152 78.5204L30.1716 78L30.9152 77.4796L30.7574 76.5858L31.6512 76.7435L32.1716 76L32.6921 76.7435L33.5858 76.5858L33.4281 77.4796L34.1716 78ZM39.4281 78.5204L40.1716 78L39.4281 77.4796L39.5858 76.5858L38.6921 76.7435L38.1716 76L37.6512 76.7435L36.7574 76.5858L36.9152 77.4796L36.1716 78L36.9152 78.5204L36.7574 79.4142L37.6512 79.2565L38.1716 80L38.6921 79.2565L39.5858 79.4142L39.4281 78.5204ZM37 74L36.2565 74.5204L36.4142 75.4142L35.5204 75.2565L35 76L34.4796 75.2565L33.5858 75.4142L33.7435 74.5204L33 74L33.7435 73.4796L33.5858 72.5858L34.4796 72.7435L35 72L35.5204 72.7435L36.4142 72.5858L36.2565 73.4796L37 74ZM27.2565 78.5204L28 78L27.2565 77.4796L27.4142 76.5858L26.5204 76.7435L26 76L25.4796 76.7435L24.5858 76.5858L24.7435 77.4796L24 78L24.7435 78.5204L24.5858 79.4142L25.4796 79.2565L26 80L26.5204 79.2565L27.4142 79.4142L27.2565 78.5204Z" fill="url(#paint1_linear_8_1394)"/>
<path fill-rule="evenodd" clip-rule="evenodd" d="M43.018 78.248L43.0172 78.2485L42.0336 76.5071L42.0325 76.505L42.0345 76.5039C42.567 76.2034 43.1613 76.029 43.7718 75.9941C43.8603 75.989 43.9489 75.9869 44.0373 75.9877C44.559 75.9926 45.0757 76.0995 45.5579 76.3035C46.1218 76.542 46.6234 76.9068 47.0241 77.3698C47.4248 77.8328 47.7139 78.3816 47.8692 78.9739C48.0245 79.5663 48.0417 80.1864 47.9197 80.7865C47.7976 81.3866 47.5395 81.9507 47.1651 82.4352C46.8451 82.8496 46.4474 83.1963 45.9952 83.4567C45.9185 83.5008 45.8403 83.5424 45.7606 83.5815C45.2108 83.851 44.6066 83.9908 43.9944 83.9899V83.9897H24V81.9897H43.9972L43.9972 81.9875C44.303 81.9879 44.6049 81.9181 44.8795 81.7834C45.1541 81.6488 45.3941 81.4529 45.5811 81.2108C45.7681 80.9688 45.897 80.687 45.958 80.3873C46.019 80.0875 46.0104 79.7777 45.9328 79.4818C45.8552 79.1859 45.7108 78.9118 45.5106 78.6805C45.3105 78.4492 45.0599 78.267 44.7782 78.1478C44.4966 78.0287 44.1913 77.9758 43.886 77.9933C43.581 78.0107 43.2841 78.0978 43.018 78.248ZM37.2058 92.7506L24 88.0525V85.998L38.5239 85.9981V86.0011C39.0376 86.0043 39.5443 86.1207 40.008 86.3419C40.1866 86.4271 40.357 86.527 40.5178 86.6404C40.7752 86.8219 41.0076 87.0379 41.2083 87.283C41.5344 87.6811 41.7686 88.1463 41.8943 88.6454C42.0201 89.1445 42.0342 89.6652 41.9357 90.1703C41.8372 90.6755 41.6286 91.1527 41.3246 91.568C41.0206 91.9833 40.6288 92.3264 40.1771 92.5728C39.8991 92.7245 39.6026 92.8373 39.2959 92.9088C39.1043 92.9534 38.9088 92.982 38.7113 92.9938C38.1977 93.0246 37.6836 92.9417 37.2057 92.751L37.2058 92.7506ZM29.8151 87.9982L38.5103 87.9983L38.5103 88.0016L38.5103 88.002L38.5112 88.002C38.7312 88.0034 38.9483 88.0532 39.1468 88.1479C39.3457 88.2428 39.5212 88.3804 39.6608 88.5509C39.8005 88.7214 39.9008 88.9206 39.9546 89.1344C40.0085 89.3481 40.0145 89.571 39.9723 89.7874C39.9302 90.0037 39.8408 90.2081 39.7106 90.3859C39.5805 90.5637 39.4127 90.7106 39.2193 90.8162C39.0258 90.9217 38.8115 90.9833 38.5916 90.9964C38.3847 91.0089 38.1776 90.9782 37.9835 90.9065L37.9842 90.9045L29.8151 87.9982Z" fill="url(#paint2_linear_8_1394)"/>
<path fill-rule="evenodd" clip-rule="evenodd" d="M31 74L30.2565 74.5204L30.4142 75.4142L29.5204 75.2565L29 76L28.4796 75.2565L27.5858 75.4142L27.7435 74.5204L27 74L27.7435 73.4796L27.5858 72.5858L28.4796 72.7435L29 72L29.5204 72.7435L30.4142 72.5858L30.2565 73.4796L31 74ZM34.1716 78L33.4281 78.5204L33.5858 79.4142L32.6921 79.2565L32.1716 80L31.6512 79.2565L30.7574 79.4142L30.9152 78.5204L30.1716 78L30.9152 77.4796L30.7574 76.5858L31.6512 76.7435L32.1716 76L32.6921 76.7435L33.5858 76.5858L33.4281 77.4796L34.1716 78ZM39.4281 78.5204L40.1716 78L39.4281 77.4796L39.5858 76.5858L38.6921 76.7435L38.1716 76L37.6512 76.7435L36.7574 76.5858L36.9152 77.4796L36.1716 78L36.9152 78.5204L36.7574 79.4142L37.6512 79.2565L38.1716 80L38.6921 79.2565L39.5858 79.4142L39.4281 78.5204ZM37 74L36.2565 74.5204L36.4142 75.4142L35.5204 75.2565L35 76L34.4796 75.2565L33.5858 75.4142L33.7435 74.5204L33 74L33.7435 73.4796L33.5858 72.5858L34.4796 72.7435L35 72L35.5204 72.7435L36.4142 72.5858L36.2565 73.4796L37 74ZM27.2565 78.5204L28 78L27.2565 77.4796L27.4142 76.5858L26.5204 76.7435L26 76L25.4796 76.7435L24.5858 76.5858L24.7435 77.4796L24 78L24.7435 78.5204L24.5858 79.4142L25.4796 79.2565L26 80L26.5204 79.2565L27.4142 79.4142L27.2565 78.5204Z" fill="url(#paint3_linear_8_1394)"/>
<defs>
<linearGradient id="paint0_linear_8_1394" x1="36" y1="75.9875" x2="36" y2="93.0001" gradientUnits="userSpaceOnUse">
<stop stop-color="#CED3EA"/>
<stop offset="1" stop-color="#7E83A9"/>
</linearGradient>
<linearGradient id="paint1_linear_8_1394" x1="32.0858" y1="72" x2="32.0858" y2="80" gradientUnits="userSpaceOnUse">
<stop stop-color="#B2D4F7"/>
<stop offset="1" stop-color="#D9E2F3"/>
</linearGradient>
<linearGradient id="paint2_linear_8_1394" x1="36" y1="75.9875" x2="36" y2="93.0001" gradientUnits="userSpaceOnUse">
<stop stop-color="#CED3EA"/>
<stop offset="1" stop-color="#7E83A9"/>
</linearGradient>
<linearGradient id="paint3_linear_8_1394" x1="32.0858" y1="72" x2="32.0858" y2="80" gradientUnits="userSpaceOnUse">
<stop stop-color="#B2D4F7"/>
<stop offset="1" stop-color="#D9E2F3"/>
</linearGradient>
</defs>
</svg>
