<svg width="72" height="119" viewBox="0 0 72 119" fill="none" xmlns="http://www.w3.org/2000/svg">
<rect x="0.5" y="0.5" width="71" height="118" rx="4.5" stroke="#7B61FF" stroke-dasharray="10 5"/>
<path fill-rule="evenodd" clip-rule="evenodd" d="M45.8649 35.9736C46.9653 34.9127 47.7125 33.5116 47.9326 31.9582C47.8581 31.9913 47.7831 32.023 47.7075 32.0533C47.6456 32.0781 47.5833 32.102 47.5207 32.1248C46.7062 32.4222 45.8309 32.5557 44.948 32.5085L44.9296 32.5074C43.3617 32.4191 41.8823 31.7669 40.7762 30.6761L40.7684 30.6684C39.7663 29.6768 39.1368 28.3884 38.9733 27.0125C38.9555 26.8626 38.9432 26.7117 38.9366 26.56C38.9003 25.7311 39.0342 24.9111 39.3224 24.1457C37.0224 24.6083 35.1435 26.1326 34.2165 28.1463C38.035 28.8041 41.1596 31.62 42.4111 35.3588C42.6052 35.3419 42.8017 35.3333 43 35.3333C44.0207 35.3333 44.9905 35.5621 45.8649 35.9736ZM32.1119 28.0074C33.3734 24.5079 36.7848 22 40.7954 22C41.7718 22 42.7127 22.1487 43.5957 22.4241C42.783 22.7593 42.0969 23.3288 41.6266 24.0458L41.6108 24.0441C41.148 24.7675 40.9164 25.6149 40.9541 26.4765C40.9584 26.574 40.9661 26.6711 40.9771 26.7675C41.0849 27.7098 41.5128 28.593 42.1967 29.2732L42.2045 29.2809C42.963 30.0315 43.9801 30.4793 45.0575 30.5369L45.0759 30.5379C45.7249 30.5699 46.3673 30.459 46.958 30.2194C47.3423 30.0636 47.7046 29.8534 48.0326 29.5928L48.034 29.5944C48.6399 29.1109 49.1091 28.4708 49.3765 27.7375C49.7791 28.749 49.9999 29.8493 49.9999 31C49.9999 33.3551 49.0748 35.4989 47.5604 37.103C49.054 38.4478 50 40.4415 50 42.6666C50 46.7167 46.866 49.9999 43 49.9999L43 50H32.5283V50L32.5 50C26.701 50 22 45.0751 22 39C22 33.061 26.4927 28.2213 32.1119 28.0074ZM32.5534 47.9998L32.5 48C27.8922 48 24 44.0593 24 39C24 33.9407 27.8922 30 32.5 30C36.0862 30 39.2389 32.3871 40.4607 35.8307L40.4583 35.8316C40.6824 36.4624 40.8416 37.1268 40.9271 37.8158C41.5652 37.5047 42.2695 37.3333 43 37.3333C45.6747 37.3333 48 39.6324 48 42.6666C48 45.7008 45.6747 47.9999 43 47.9999L43 48H32.5534V47.9998Z" fill="white"/>
<path fill-rule="evenodd" clip-rule="evenodd" d="M47.3145 84.3537C46.7911 83.892 46.1697 83.5347 45.4845 83.3151C46.7923 82.2228 47.688 80.6846 47.9325 78.9582C47.8581 78.9913 47.7831 79.023 47.7075 79.0533C47.6456 79.0781 47.5833 79.102 47.5207 79.1248C46.7061 79.4222 45.8309 79.5557 44.948 79.5085L44.9296 79.5074C43.3617 79.4191 41.8823 78.7669 40.7762 77.6761L40.7683 77.6684C39.7663 76.6768 39.1368 75.3884 38.9733 74.0125C38.9555 73.8626 38.9432 73.7117 38.9366 73.56C38.9003 72.7311 39.0342 71.9111 39.3224 71.1457C36.7754 71.658 34.7448 73.4723 33.9514 75.8112C33.2994 75.6667 32.6244 75.5815 31.9326 75.5616C33.0199 71.7758 36.5761 69 40.7953 69C41.7717 69 42.7126 69.1487 43.5956 69.4241C42.783 69.7593 42.0969 70.3288 41.6266 71.0458C41.6213 71.0452 41.616 71.0446 41.6108 71.0441C41.148 71.7675 40.9164 72.6149 40.9541 73.4765C40.9584 73.574 40.966 73.6711 40.9771 73.7675C41.0849 74.7098 41.5128 75.593 42.1967 76.2732L42.2045 76.2809C42.963 77.0315 43.98 77.4793 45.0574 77.5369L45.0759 77.5379C45.7248 77.5699 46.3673 77.459 46.958 77.2194C47.3422 77.0636 47.7046 76.8534 48.0326 76.5928L48.034 76.5944C48.6398 76.1109 49.109 75.4708 49.3765 74.7375C49.779 75.749 49.9999 76.8493 49.9999 78C49.9999 80.48 48.974 82.7258 47.3145 84.3537Z" fill="url(#paint0_linear_8_481)"/>
<path fill-rule="evenodd" clip-rule="evenodd" d="M32.5 95L32.5534 94.9998V95H43L43 94.9999C45.6747 94.9999 48 92.7008 48 89.6666C48 86.6324 45.6747 84.3333 43 84.3333C42.2695 84.3333 41.5652 84.5047 40.9271 84.8158C40.8416 84.1268 40.6824 83.4624 40.4583 82.8316L40.4607 82.8307C39.2389 79.3871 36.0862 77 32.5 77C27.8922 77 24 80.9407 24 86C24 91.0593 27.8922 95 32.5 95ZM43 96.9999C46.866 96.9999 50 93.7167 50 89.6666C50 85.6165 46.866 82.3333 43 82.3333C42.8017 82.3333 42.6052 82.3419 42.4111 82.3588C40.9766 78.0731 37.0809 75 32.5 75C26.701 75 22 79.9249 22 86C22 92.0751 26.701 97 32.5 97C32.5094 97 32.5188 97 32.5283 97V97H43L43 96.9999Z" fill="url(#paint1_linear_8_481)"/>
<defs>
<linearGradient id="paint0_linear_8_481" x1="40.9663" y1="69" x2="40.9663" y2="84.3537" gradientUnits="userSpaceOnUse">
<stop stop-color="#F5BD52"/>
<stop offset="1" stop-color="#F5DA79"/>
</linearGradient>
<linearGradient id="paint1_linear_8_481" x1="36" y1="75" x2="36" y2="97" gradientUnits="userSpaceOnUse">
<stop stop-color="#B2D4F7"/>
<stop offset="1" stop-color="#D9E2F3"/>
</linearGradient>
</defs>
</svg>
