<svg width="72" height="119" viewBox="0 0 72 119" fill="none" xmlns="http://www.w3.org/2000/svg">
<rect x="0.5" y="0.5" width="71" height="118" rx="4.5" stroke="#7B61FF" stroke-dasharray="10 5"/>
<path fill-rule="evenodd" clip-rule="evenodd" d="M31.5317 28.0559C31.8857 28.019 32.2449 28 32.6083 28C37.469 28 41.5661 31.3898 42.821 36.0139C42.9215 36.0073 43.0225 36.0031 43.1241 36.0012C43.0828 36.0005 43.0414 36.0001 43 36.0001L42.9664 36.0002L42.9664 36H44.5H44.5602V35.9995C46.4654 35.9673 48 34.4129 48 32.5C48 30.567 46.433 29 44.5 29C43.8509 29 43.2432 29.1767 42.7221 29.4845C42.7206 28.9258 42.6357 28.3866 42.4793 27.8789C41.7001 25.6215 39.5567 24 37.0345 24C34.4468 24 32.2578 25.7068 31.5317 28.0559ZM47.1766 37.3059C48.8861 38.5759 50 40.653 50 43C50 46.866 46.9776 50 43.2493 50C43.1658 50 43.0827 49.9984 43 49.9953V50H32.7671V49.9988C32.7143 49.9996 32.6613 50 32.6083 50C26.7495 50 22 45.0751 22 39C22 34.0943 25.0969 29.9387 29.3741 28.5206C29.9669 24.8241 33.1709 22 37.0345 22C40.3494 22 43.1787 24.0788 44.2899 27.0039C44.3596 27.0013 44.4296 27 44.5 27C47.5375 27 50 29.4624 50 32.5C50 34.5659 48.8609 36.3658 47.1766 37.3059ZM43 48H32.7671H32.652V47.9999L32.6083 48C27.9218 48 24 44.0395 24 39C24 33.9605 27.9218 30 32.6083 30C36.5839 30 40.0091 32.85 40.9569 36.7911L40.9599 36.7899C41.0937 37.3367 41.1791 37.9037 41.2108 38.4855C41.8339 38.1732 42.5272 38 43.2493 38C45.8053 38 48 40.1696 48 43C48 45.8105 45.8359 47.9695 43.3029 47.9996V48H43Z" fill="white"/>
<path fill-rule="evenodd" clip-rule="evenodd" d="M31.5317 75.0559C31.8857 75.019 32.2449 75 32.6083 75C37.469 75 41.5661 78.3898 42.821 83.0139C42.9215 83.0073 43.0225 83.0031 43.1241 83.0012C43.0828 83.0005 43.0414 83.0001 43 83.0001L42.9664 83.0002L42.9664 83H44.5H44.5602V82.9995C46.4654 82.9673 48 81.4129 48 79.5C48 77.567 46.433 76 44.5 76C43.8509 76 43.2432 76.1767 42.7221 76.4845C42.7206 75.9258 42.6357 75.3866 42.4793 74.8789C41.7001 72.6215 39.5567 71 37.0345 71C34.4468 71 32.2578 72.7068 31.5317 75.0559ZM47.1766 84.3059C48.8861 85.5759 50 87.653 50 90C50 93.866 46.9776 97 43.2493 97C43.1658 97 43.0827 96.9984 43 96.9953V97H32.7671V96.9988C32.7143 96.9996 32.6613 97 32.6083 97C26.7495 97 22 92.0751 22 86C22 81.0943 25.0969 76.9387 29.3741 75.5206C29.9669 71.8241 33.1709 69 37.0345 69C40.3494 69 43.1787 71.0788 44.2899 74.0039C44.3596 74.0013 44.4296 74 44.5 74C47.5375 74 50 76.4624 50 79.5C50 81.5659 48.8609 83.3658 47.1766 84.3059ZM43 95H32.7671H32.652V94.9999L32.6083 95C27.9218 95 24 91.0395 24 86C24 80.9605 27.9218 77 32.6083 77C36.5839 77 40.0091 79.85 40.9569 83.7911L40.9599 83.7899C41.0937 84.3367 41.1791 84.9037 41.2108 85.4855C41.8339 85.1732 42.5272 85 43.2493 85C45.8053 85 48 87.1696 48 90C48 92.8105 45.8359 94.9695 43.3029 94.9996V95H43Z" fill="url(#paint0_linear_8_236)"/>
<defs>
<linearGradient id="paint0_linear_8_236" x1="36" y1="69" x2="36" y2="97" gradientUnits="userSpaceOnUse">
<stop stop-color="#B2D4F7"/>
<stop offset="1" stop-color="#D9E2F3"/>
</linearGradient>
</defs>
</svg>
