<svg width="72" height="119" viewBox="0 0 72 119" fill="none" xmlns="http://www.w3.org/2000/svg">
<rect x="0.5" y="0.5" width="71" height="118" rx="4.5" stroke="#7B61FF" stroke-dasharray="10 5"/>
<path fill-rule="evenodd" clip-rule="evenodd" d="M45 43.7623C47.8796 42.9627 50 40.2381 50 37C50 34.9172 49.1228 33.047 47.7306 31.7647C48.7198 31.0656 49.4797 30.0293 49.8176 28.7672C50.0311 27.9702 50.0538 27.167 49.9137 26.4062C49.3727 27.6444 48.0002 28.3454 46.647 28.0024C46.2044 27.8902 45.813 27.6787 45.4908 27.3978C45.3504 27.2943 45.2227 27.174 45.1106 27.0391C44.9137 26.8021 44.7697 26.5259 44.6881 26.2288L44.6798 26.1976C44.505 25.6956 44.4703 25.1384 44.6104 24.5846C44.8941 23.4638 45.8142 22.6724 46.8871 22.4983C46.612 22.3713 46.3224 22.2658 46.0199 22.1847C43.5197 21.5143 40.9587 22.7245 39.8366 24.9488C37.9422 23.1192 35.4013 22 32.6083 22C26.7495 22 22 26.9249 22 33C22 37.3628 24.4494 41.1323 28 42.9107V40.6003C25.6102 39.0152 24 36.2291 24 33C24 27.9605 27.9218 24 32.6083 24C36.5839 24 40.0091 26.85 40.9569 30.7911L40.9599 30.7899C41.0937 31.3367 41.1791 31.9037 41.2108 32.4855C41.8339 32.1732 42.5272 32 43.2493 32C45.8053 32 48 34.1696 48 37C48 39.1518 46.7314 40.9218 45 41.6467V43.7623ZM41.3221 26.7247C41.9865 27.7148 42.4979 28.8234 42.821 30.0139C42.9626 30.0047 43.1054 30 43.2493 30C44.1632 30 45.0347 30.1883 45.8297 30.5296C46.2261 30.378 46.5919 30.1526 46.906 29.8654C46.8252 29.8679 46.7442 29.8681 46.6632 29.866C46.0642 29.8503 45.4755 29.7067 44.9363 29.445C44.3972 29.1832 43.9202 28.8093 43.5371 28.3482C43.154 27.8872 42.8737 27.3496 42.7149 26.7714C42.5561 26.1932 42.5225 25.5877 42.6164 24.9955C42.6368 24.8665 42.6632 24.7388 42.6954 24.6128C42.0689 25.0518 41.5872 25.7054 41.3737 26.5031C41.3539 26.5769 41.3367 26.6508 41.3221 26.7247ZM30.3609 40.9244C30.1533 41.4108 30.0009 41.9308 30.001 42.4091C30.0013 43.2877 30.6731 44 31.5015 44C32.33 44 33.0013 43.2877 33.001 42.4091C33.0009 41.9619 32.8327 41.4321 32.609 40.9252C32.1643 39.9175 31.5 39 31.5 39C31.5 39 30.8044 39.8856 30.3609 40.9244ZM35.001 42.4091C35.0009 41.9308 35.1533 41.4108 35.3609 40.9244C35.8044 39.8856 36.5 39 36.5 39C36.5 39 37.1643 39.9175 37.609 40.9252C37.8327 41.4321 38.0009 41.9619 38.001 42.4091C38.0013 43.2877 37.33 44 36.5015 44C35.6731 44 35.0013 43.2877 35.001 42.4091ZM33.2354 45.9244C33.0278 46.4108 32.8754 46.9308 32.8756 47.4091C32.8758 48.2877 33.5476 49 34.376 49C35.2045 49 35.8758 48.2877 35.8756 47.4091C35.8754 46.9619 35.7072 46.4321 35.4835 45.9252C35.0388 44.9175 34.3745 44 34.3745 44C34.3745 44 33.6789 44.8856 33.2354 45.9244ZM40.001 42.4091C40.0009 41.9308 40.1533 41.4108 40.3609 40.9244C40.8044 39.8856 41.5 39 41.5 39C41.5 39 42.1643 39.9175 42.609 40.9252C42.8327 41.4321 43.0009 41.9619 43.001 42.4091C43.0013 43.2877 42.33 44 41.5015 44C40.6731 44 40.0013 43.2877 40.001 42.4091ZM38.2503 45.9244C38.0427 46.4108 37.8903 46.9308 37.8905 47.4091C37.8907 48.2877 38.5625 49 39.3909 49C40.2194 49 40.8907 48.2877 40.8904 47.4091C40.8903 46.9619 40.7221 46.4321 40.4984 45.9252C40.0537 44.9175 39.3894 44 39.3894 44C39.3894 44 38.6938 44.8856 38.2503 45.9244Z" fill="white"/>
<path fill-rule="evenodd" clip-rule="evenodd" d="M49.8175 76.7672C50.0309 75.9702 50.0536 75.167 49.9136 74.4062C49.3725 75.6444 48.0001 76.3454 46.6469 76.0024C46.2042 75.8902 45.8129 75.6787 45.4906 75.3978C45.3503 75.2943 45.2225 75.174 45.1105 75.0391C44.9136 74.8021 44.7696 74.5259 44.688 74.2288L44.6797 74.1976C44.5048 73.6956 44.4701 73.1384 44.6103 72.5846C44.894 71.4638 45.814 70.6724 46.8869 70.4983C46.6119 70.3713 46.3223 70.2658 46.0197 70.1847C43.3256 69.4623 40.5608 70.9236 39.6021 73.4844C40.2284 74.0358 40.7853 74.6644 41.2578 75.3552C41.2598 75.0737 41.2973 74.7878 41.3735 74.5031C41.5871 73.7054 42.0688 73.0518 42.6953 72.6128C42.6631 72.7388 42.6367 72.8665 42.6163 72.9955C42.5224 73.5877 42.556 74.1932 42.7148 74.7714C42.8736 75.3496 43.1539 75.8872 43.537 76.3482C43.9201 76.8093 44.3971 77.1832 44.9362 77.445C45.4753 77.7067 46.0641 77.8503 46.6631 77.866C46.7441 77.8681 46.8251 77.8679 46.9058 77.8654C46.0846 78.6164 44.91 78.9448 43.7569 78.6356C43.3056 78.5146 42.9002 78.3074 42.5539 78.0364C42.6515 78.3519 42.734 78.6742 42.8004 79.0023C42.8666 79.0001 42.9331 78.999 42.9998 78.999C44.4182 78.999 45.7217 79.4915 46.7487 80.315C48.2073 79.6871 49.3747 78.4211 49.8175 76.7672Z" fill="url(#paint0_linear_8_1052)"/>
<path fill-rule="evenodd" clip-rule="evenodd" d="M50 85C50 88.2381 47.8796 90.9627 45 91.7623V89.6467C46.7314 88.9218 48 87.1518 48 85C48 82.1696 45.8053 80 43.2493 80C42.5272 80 41.8339 80.1732 41.2108 80.4855C41.1791 79.9037 41.0937 79.3367 40.9599 78.7899L40.9569 78.7911C40.0091 74.85 36.5839 72 32.6083 72C27.9218 72 24 75.9605 24 81C24 84.2291 25.6102 87.0152 28 88.6003V90.9107C24.4494 89.1323 22 85.3628 22 81C22 74.9249 26.7495 70 32.6083 70C37.469 70 41.5661 73.3898 42.821 78.0139C42.9626 78.0047 43.1054 78 43.2493 78C46.9776 78 50 81.134 50 85ZM30.001 90.4091C30.0009 89.9308 30.1533 89.4108 30.3609 88.9244C30.8044 87.8856 31.5 87 31.5 87C31.5 87 32.1643 87.9175 32.609 88.9252C32.8327 89.4321 33.0009 89.9619 33.001 90.4091C33.0013 91.2877 32.33 92 31.5015 92C30.6731 92 30.0013 91.2877 30.001 90.4091ZM35.3609 88.9244C35.1533 89.4108 35.0009 89.9308 35.001 90.4091C35.0013 91.2877 35.6731 92 36.5015 92C37.33 92 38.0013 91.2877 38.001 90.4091C38.0009 89.9619 37.8327 89.4321 37.609 88.9252C37.1643 87.9175 36.5 87 36.5 87C36.5 87 35.8044 87.8856 35.3609 88.9244ZM32.8756 95.4091C32.8754 94.9308 33.0278 94.4108 33.2354 93.9244C33.6789 92.8856 34.3745 92 34.3745 92C34.3745 92 35.0388 92.9175 35.4835 93.9252C35.7072 94.4321 35.8754 94.9619 35.8756 95.4091C35.8758 96.2877 35.2045 97 34.376 97C33.5476 97 32.8758 96.2877 32.8756 95.4091ZM40.3609 88.9244C40.1533 89.4108 40.0009 89.9308 40.001 90.4091C40.0013 91.2877 40.6731 92 41.5015 92C42.33 92 43.0013 91.2877 43.001 90.4091C43.0009 89.9619 42.8327 89.4321 42.609 88.9252C42.1643 87.9175 41.5 87 41.5 87C41.5 87 40.8044 87.8856 40.3609 88.9244ZM37.8905 95.4091C37.8903 94.9308 38.0427 94.4108 38.2503 93.9244C38.6938 92.8856 39.3894 92 39.3894 92C39.3894 92 40.0537 92.9175 40.4984 93.9252C40.7221 94.4321 40.8903 94.9619 40.8904 95.4091C40.8907 96.2877 40.2194 97 39.3909 97C38.5625 97 37.8907 96.2877 37.8905 95.4091Z" fill="url(#paint1_linear_8_1052)"/>
<defs>
<linearGradient id="paint0_linear_8_1052" x1="44.802" y1="70.0002" x2="44.802" y2="80.315" gradientUnits="userSpaceOnUse">
<stop stop-color="#F5BD52"/>
<stop offset="1" stop-color="#F5DA79"/>
</linearGradient>
<linearGradient id="paint1_linear_8_1052" x1="36" y1="70" x2="36" y2="97" gradientUnits="userSpaceOnUse">
<stop stop-color="#95B6F6"/>
<stop offset="1" stop-color="#5193DE"/>
</linearGradient>
</defs>
</svg>
