<svg width="72" height="119" viewBox="0 0 72 119" fill="none" xmlns="http://www.w3.org/2000/svg">
<rect x="0.5" y="0.5" width="71" height="118" rx="4.5" stroke="#7B61FF" stroke-dasharray="10 5"/>
<path fill-rule="evenodd" clip-rule="evenodd" d="M45 43.7623C47.8796 42.9627 50 40.2381 50 37C50 35.5559 49.5783 34.2139 48.8556 33.0993C49.5798 31.9759 50.0001 30.6381 50.0001 29.2021C50.0001 25.2245 46.7756 22 42.798 22C41.0525 22 39.452 22.6209 38.2055 23.654C36.5808 22.6056 34.6627 22 32.6083 22C26.7495 22 22 26.9249 22 33C22 37.3628 24.4494 41.1323 28 42.9107V40.6003C25.6102 39.0152 24 36.2291 24 33C24 27.9605 27.9218 24 32.6083 24C36.5839 24 40.0091 26.85 40.9569 30.7911L40.9599 30.7899C41.0937 31.3367 41.1791 31.9037 41.2108 32.4855C41.8339 32.1732 42.5272 32 43.2493 32C45.8053 32 48 34.1696 48 37C48 39.1518 46.7314 40.9218 45 41.6467V43.7623ZM39.8221 24.9347C41.2318 26.2911 42.2853 28.04 42.821 30.0139C42.9626 30.0047 43.1054 30 43.2493 30C44.8393 30 46.301 30.57 47.4545 31.5237C47.8037 30.8249 48.0001 30.0364 48.0001 29.2021C48.0001 26.3291 45.671 24 42.798 24C41.6913 24 40.6653 24.3456 39.8221 24.9347ZM30.3609 40.9244C30.1533 41.4108 30.0009 41.9308 30.001 42.4091C30.0013 43.2877 30.6731 44 31.5015 44C32.33 44 33.0013 43.2877 33.001 42.4091C33.0009 41.9619 32.8327 41.4321 32.609 40.9252C32.1643 39.9175 31.5 39 31.5 39C31.5 39 30.8044 39.8856 30.3609 40.9244ZM35.001 42.4091C35.0009 41.9308 35.1533 41.4108 35.3609 40.9244C35.8044 39.8856 36.5 39 36.5 39C36.5 39 37.1643 39.9175 37.609 40.9252C37.8327 41.4321 38.0009 41.9619 38.001 42.4091C38.0013 43.2877 37.33 44 36.5015 44C35.6731 44 35.0013 43.2877 35.001 42.4091ZM33.2354 45.9244C33.0278 46.4108 32.8754 46.9308 32.8756 47.4091C32.8758 48.2877 33.5476 49 34.376 49C35.2045 49 35.8758 48.2877 35.8756 47.4091C35.8754 46.9619 35.7072 46.4321 35.4835 45.9252C35.0388 44.9175 34.3745 44 34.3745 44C34.3745 44 33.6789 44.8856 33.2354 45.9244ZM40.001 42.4091C40.0009 41.9308 40.1533 41.4108 40.3609 40.9244C40.8044 39.8856 41.5 39 41.5 39C41.5 39 42.1643 39.9175 42.609 40.9252C42.8327 41.4321 43.0009 41.9619 43.001 42.4091C43.0013 43.2877 42.33 44 41.5015 44C40.6731 44 40.0013 43.2877 40.001 42.4091ZM38.2503 45.9244C38.0427 46.4108 37.8903 46.9308 37.8905 47.4091C37.8907 48.2877 38.5625 49 39.3909 49C40.2194 49 40.8907 48.2877 40.8904 47.4091C40.8903 46.9619 40.7221 46.4321 40.4984 45.9252C40.0537 44.9175 39.3894 44 39.3894 44C39.3894 44 38.6938 44.8856 38.2503 45.9244Z" fill="white"/>
<path fill-rule="evenodd" clip-rule="evenodd" d="M47.0693 80.1726C47.6561 79.3304 48.0002 78.3064 48.0002 77.2021C48.0002 74.3291 45.6711 72 42.7981 72C41.4845 72 40.2846 72.4869 39.369 73.2901C38.8431 72.8551 38.2719 72.4729 37.6636 72.1517C38.9701 70.8236 40.7879 70 42.7981 70C46.7757 70 50.0002 73.2245 50.0002 77.2021C50.0002 78.9899 49.3488 80.6255 48.2704 81.8846C47.9565 81.254 47.5502 80.6774 47.0693 80.1726Z" fill="url(#paint0_linear_8_972)"/>
<path fill-rule="evenodd" clip-rule="evenodd" d="M50 85C50 88.2381 47.8796 90.9627 45 91.7623V89.6467C46.7314 88.9218 48 87.1518 48 85C48 82.1696 45.8053 80 43.2493 80C42.5272 80 41.8339 80.1732 41.2108 80.4855C41.1791 79.9037 41.0937 79.3367 40.9599 78.7899L40.9569 78.7911C40.0091 74.85 36.5839 72 32.6083 72C27.9218 72 24 75.9605 24 81C24 84.2291 25.6102 87.0152 28 88.6003V90.9107C24.4494 89.1323 22 85.3628 22 81C22 74.9249 26.7495 70 32.6083 70C37.469 70 41.5661 73.3898 42.821 78.0139C42.9626 78.0047 43.1054 78 43.2493 78C46.9776 78 50 81.134 50 85ZM30.001 90.4091C30.0009 89.9308 30.1533 89.4108 30.3609 88.9244C30.8044 87.8856 31.5 87 31.5 87C31.5 87 32.1643 87.9175 32.609 88.9252C32.8327 89.4321 33.0009 89.9619 33.001 90.4091C33.0013 91.2877 32.33 92 31.5015 92C30.6731 92 30.0013 91.2877 30.001 90.4091ZM35.3609 88.9244C35.1533 89.4108 35.0009 89.9308 35.001 90.4091C35.0013 91.2877 35.6731 92 36.5015 92C37.33 92 38.0013 91.2877 38.001 90.4091C38.0009 89.9619 37.8327 89.4321 37.609 88.9252C37.1643 87.9175 36.5 87 36.5 87C36.5 87 35.8044 87.8856 35.3609 88.9244ZM32.8756 95.4091C32.8754 94.9308 33.0278 94.4108 33.2354 93.9244C33.6789 92.8856 34.3745 92 34.3745 92C34.3745 92 35.0388 92.9175 35.4835 93.9252C35.7072 94.4321 35.8754 94.9619 35.8756 95.4091C35.8758 96.2877 35.2045 97 34.376 97C33.5476 97 32.8758 96.2877 32.8756 95.4091ZM40.3609 88.9244C40.1533 89.4108 40.0009 89.9308 40.001 90.4091C40.0013 91.2877 40.6731 92 41.5015 92C42.33 92 43.0013 91.2877 43.001 90.4091C43.0009 89.9619 42.8327 89.4321 42.609 88.9252C42.1643 87.9175 41.5 87 41.5 87C41.5 87 40.8044 87.8856 40.3609 88.9244ZM37.8905 95.4091C37.8903 94.9308 38.0427 94.4108 38.2503 93.9244C38.6938 92.8856 39.3894 92 39.3894 92C39.3894 92 40.0537 92.9175 40.4984 93.9252C40.7221 94.4321 40.8903 94.9619 40.8904 95.4091C40.8907 96.2877 40.2194 97 39.3909 97C38.5625 97 37.8907 96.2877 37.8905 95.4091Z" fill="url(#paint1_linear_8_972)"/>
<defs>
<linearGradient id="paint0_linear_8_972" x1="43.8319" y1="70" x2="43.8319" y2="81.8846" gradientUnits="userSpaceOnUse">
<stop stop-color="#EFC977"/>
<stop offset="1" stop-color="#E07256"/>
</linearGradient>
<linearGradient id="paint1_linear_8_972" x1="36" y1="70" x2="36" y2="97" gradientUnits="userSpaceOnUse">
<stop stop-color="#95B6F6"/>
<stop offset="1" stop-color="#5193DE"/>
</linearGradient>
</defs>
</svg>
