<svg width="72" height="119" viewBox="0 0 72 119" fill="none" xmlns="http://www.w3.org/2000/svg">
<rect x="0.5" y="0.5" width="71" height="118" rx="4.5" stroke="#7B61FF" stroke-dasharray="10 5"/>
<path fill-rule="evenodd" clip-rule="evenodd" d="M50 37C50 40.2381 47.8796 42.9627 45 43.7623V41.6467C46.7314 40.9218 48 39.1518 48 37C48 34.1696 45.8053 32 43.2493 32C42.5272 32 41.8339 32.1732 41.2108 32.4855C41.1791 31.9037 41.0937 31.3367 40.9599 30.7899L40.9569 30.7911C40.0091 26.85 36.5839 24 32.6083 24C27.9218 24 24 27.9605 24 33C24 36.2291 25.6102 39.0152 28 40.6003V42.9107C24.4494 41.1323 22 37.3628 22 33C22 26.9249 26.7495 22 32.6083 22C37.469 22 41.5661 25.3898 42.821 30.0139C42.9626 30.0047 43.1054 30 43.2493 30C46.9776 30 50 33.134 50 37ZM30.001 42.4091C30.0009 41.9308 30.1533 41.4108 30.3609 40.9244C30.8044 39.8856 31.5 39 31.5 39C31.5 39 32.1643 39.9175 32.609 40.9252C32.8327 41.4321 33.0009 41.9619 33.001 42.4091C33.0013 43.2877 32.33 44 31.5015 44C30.6731 44 30.0013 43.2877 30.001 42.4091ZM35.3609 40.9244C35.1533 41.4108 35.0009 41.9308 35.001 42.4091C35.0013 43.2877 35.6731 44 36.5015 44C37.33 44 38.0013 43.2877 38.001 42.4091C38.0009 41.9619 37.8327 41.4321 37.609 40.9252C37.1643 39.9175 36.5 39 36.5 39C36.5 39 35.8044 39.8856 35.3609 40.9244ZM32.8756 47.4091C32.8754 46.9308 33.0278 46.4108 33.2354 45.9244C33.6789 44.8856 34.3745 44 34.3745 44C34.3745 44 35.0388 44.9175 35.4835 45.9252C35.7072 46.4321 35.8754 46.9619 35.8756 47.4091C35.8758 48.2877 35.2045 49 34.376 49C33.5476 49 32.8758 48.2877 32.8756 47.4091ZM40.3609 40.9244C40.1533 41.4108 40.0009 41.9308 40.001 42.4091C40.0013 43.2877 40.6731 44 41.5015 44C42.33 44 43.0013 43.2877 43.001 42.4091C43.0009 41.9619 42.8327 41.4321 42.609 40.9252C42.1643 39.9175 41.5 39 41.5 39C41.5 39 40.8044 39.8856 40.3609 40.9244ZM37.8905 47.4091C37.8903 46.9308 38.0427 46.4108 38.2503 45.9244C38.6938 44.8856 39.3894 44 39.3894 44C39.3894 44 40.0537 44.9175 40.4984 45.9252C40.7221 46.4321 40.8903 46.9619 40.8904 47.4091C40.8907 48.2877 40.2194 49 39.3909 49C38.5625 49 37.8907 48.2877 37.8905 47.4091Z" fill="white"/>
<path fill-rule="evenodd" clip-rule="evenodd" d="M50 85C50 88.2381 47.8796 90.9627 45 91.7623V89.6467C46.7314 88.9218 48 87.1518 48 85C48 82.1696 45.8053 80 43.2493 80C42.5272 80 41.8339 80.1732 41.2108 80.4855C41.1791 79.9037 41.0937 79.3367 40.9599 78.7899L40.9569 78.7911C40.0091 74.85 36.5839 72 32.6083 72C27.9218 72 24 75.9605 24 81C24 84.2291 25.6102 87.0152 28 88.6003V90.9107C24.4494 89.1323 22 85.3628 22 81C22 74.9249 26.7495 70 32.6083 70C37.469 70 41.5661 73.3898 42.821 78.0139C42.9626 78.0047 43.1054 78 43.2493 78C46.9776 78 50 81.134 50 85ZM30.001 90.4091C30.0009 89.9308 30.1533 89.4108 30.3609 88.9244C30.8044 87.8856 31.5 87 31.5 87C31.5 87 32.1643 87.9175 32.609 88.9252C32.8327 89.4321 33.0009 89.9619 33.001 90.4091C33.0013 91.2877 32.33 92 31.5015 92C30.6731 92 30.0013 91.2877 30.001 90.4091ZM35.3609 88.9244C35.1533 89.4108 35.0009 89.9308 35.001 90.4091C35.0013 91.2877 35.6731 92 36.5015 92C37.33 92 38.0013 91.2877 38.001 90.4091C38.0009 89.9619 37.8327 89.4321 37.609 88.9252C37.1643 87.9175 36.5 87 36.5 87C36.5 87 35.8044 87.8856 35.3609 88.9244ZM32.8756 95.4091C32.8754 94.9308 33.0278 94.4108 33.2354 93.9244C33.6789 92.8856 34.3745 92 34.3745 92C34.3745 92 35.0388 92.9175 35.4835 93.9252C35.7072 94.4321 35.8754 94.9619 35.8756 95.4091C35.8758 96.2877 35.2045 97 34.376 97C33.5476 97 32.8758 96.2877 32.8756 95.4091ZM40.3609 88.9244C40.1533 89.4108 40.0009 89.9308 40.001 90.4091C40.0013 91.2877 40.6731 92 41.5015 92C42.33 92 43.0013 91.2877 43.001 90.4091C43.0009 89.9619 42.8327 89.4321 42.609 88.9252C42.1643 87.9175 41.5 87 41.5 87C41.5 87 40.8044 87.8856 40.3609 88.9244ZM37.8905 95.4091C37.8903 94.9308 38.0427 94.4108 38.2503 93.9244C38.6938 92.8856 39.3894 92 39.3894 92C39.3894 92 40.0537 92.9175 40.4984 93.9252C40.7221 94.4321 40.8903 94.9619 40.8904 95.4091C40.8907 96.2877 40.2194 97 39.3909 97C38.5625 97 37.8907 96.2877 37.8905 95.4091Z" fill="url(#paint0_linear_8_927)"/>
<defs>
<linearGradient id="paint0_linear_8_927" x1="36" y1="70" x2="36" y2="97" gradientUnits="userSpaceOnUse">
<stop stop-color="#95B6F6"/>
<stop offset="1" stop-color="#5193DE"/>
</linearGradient>
</defs>
</svg>
