<svg width="72" height="119" viewBox="0 0 72 119" fill="none" xmlns="http://www.w3.org/2000/svg">
<rect x="0.5" y="0.5" width="71" height="118" rx="4.5" stroke="#7B61FF" stroke-dasharray="10 5"/>
<path fill-rule="evenodd" clip-rule="evenodd" d="M22 33C22 37.3628 24.4494 41.1323 28 42.9107V40.6003C25.6102 39.0152 24 36.2291 24 33C24 27.9605 27.9218 24 32.6083 24C36.5839 24 40.0091 26.85 40.9569 30.7911L40.9599 30.7899C41.0937 31.3367 41.1791 31.9037 41.2108 32.4855C41.8339 32.1732 42.5272 32 43.2493 32C45.8053 32 48 34.1696 48 37C48 39.5486 46.2205 41.5615 44 41.937V43.9572C47.375 43.57 50 40.6028 50 37C50 33.134 46.9776 30 43.2493 30C43.1054 30 42.9626 30.0047 42.821 30.0139C41.5661 25.3898 37.469 22 32.6083 22C26.7495 22 22 26.9249 22 33ZM32.9998 42.456C32.9999 42.7921 32.7419 43.0021 32.4997 43.0021C32.2576 43.0021 31.9995 42.7921 31.9994 42.456C31.9992 42.0277 32.173 41.4437 32.4721 40.7938C32.5723 41.0045 32.6633 41.2136 32.7412 41.4168C32.9366 41.9263 32.9997 42.272 32.9998 42.456ZM32.4979 37C32.4979 37 31.9005 37.7302 31.29 38.7572C30.6517 39.8309 29.999 41.229 29.9994 42.456C29.9998 43.8622 31.1195 45.0021 32.5004 45.0021C33.8812 45.0021 35.0002 43.8622 34.9998 42.456C34.9995 41.3379 34.3157 39.8977 33.6632 38.7778C33.0675 37.7554 32.4979 37 32.4979 37ZM39.5021 43.0021C39.7442 43.0021 40.0022 42.7921 40.0021 42.456C40.0021 42.272 39.9389 41.9263 39.7435 41.4168C39.6656 41.2136 39.5746 41.0045 39.4744 40.7938C39.1753 41.4437 39.0015 42.0277 39.0017 42.456C39.0018 42.7921 39.2599 43.0021 39.5021 43.0021ZM38.2923 38.7572C38.9029 37.7302 39.5002 37 39.5002 37C39.5002 37 40.0699 37.7554 40.6655 38.7778C41.318 39.8977 42.0018 41.3379 42.0021 42.456C42.0025 43.8622 40.8835 45.0021 39.5027 45.0021C38.1218 45.0021 37.0021 43.8622 37.0017 42.456C37.0013 41.229 37.654 39.8309 38.2923 38.7572ZM37.7321 47L36 46L34.2679 47V49L36 50L37.7321 49V47ZM42 46L43.7321 47V49L42 50L40.268 49V47L42 46ZM31.7321 47L30 46L28.2679 47V49L30 50L31.7321 49V47Z" fill="white"/>
<path fill-rule="evenodd" clip-rule="evenodd" d="M28 89.9107C24.4494 88.1323 22 84.3628 22 80C22 73.9249 26.7495 69 32.6083 69C37.469 69 41.5661 72.3898 42.821 77.0139C42.9626 77.0047 43.1054 77 43.2493 77C46.9776 77 50 80.134 50 84C50 87.6028 47.375 90.57 44 90.9572V88.937C46.2205 88.5615 48 86.5486 48 84C48 81.1696 45.8053 79 43.2493 79C42.5272 79 41.8339 79.1732 41.2108 79.4855C41.1791 78.9037 41.0937 78.3367 40.9599 77.7899L40.9569 77.7911C40.0091 73.85 36.5839 71 32.6083 71C27.9218 71 24 74.9605 24 80C24 83.2291 25.6102 86.0152 28 87.6003V89.9107ZM32.4997 90.0021C32.7419 90.0021 32.9999 89.7921 32.9998 89.456C32.9997 89.272 32.9366 88.9263 32.7412 88.4168C32.6633 88.2136 32.5723 88.0045 32.4721 87.7938C32.173 88.4437 31.9992 89.0277 31.9994 89.456C31.9995 89.7921 32.2576 90.0021 32.4997 90.0021ZM31.29 85.7572C31.9005 84.7302 32.4979 84 32.4979 84C32.4979 84 33.0675 84.7554 33.6632 85.7778C34.3157 86.8977 34.9995 88.3379 34.9998 89.456C35.0002 90.8622 33.8812 92.0021 32.5004 92.0021C31.1195 92.0021 29.9998 90.8622 29.9994 89.456C29.999 88.229 30.6517 86.8309 31.29 85.7572ZM40.0021 89.456C40.0022 89.7921 39.7442 90.0021 39.5021 90.0021C39.2599 90.0021 39.0018 89.7921 39.0017 89.456C39.0015 89.0277 39.1753 88.4437 39.4744 87.7938C39.5746 88.0045 39.6656 88.2136 39.7435 88.4168C39.9389 88.9263 40.0021 89.272 40.0021 89.456ZM39.5002 84C39.5002 84 38.9029 84.7302 38.2923 85.7572C37.654 86.8309 37.0013 88.229 37.0017 89.456C37.0021 90.8622 38.1218 92.0021 39.5027 92.0021C40.8835 92.0021 42.0025 90.8622 42.0021 89.456C42.0018 88.3379 41.318 86.8977 40.6655 85.7778C40.0699 84.7554 39.5002 84 39.5002 84Z" fill="url(#paint0_linear_8_1436)"/>
<path d="M36.0001 93L37.7322 94V96L36.0001 97L34.2681 96V94L36.0001 93Z" fill="url(#paint1_linear_8_1436)"/>
<path d="M42.0001 93L43.7322 94V96L42.0001 97L40.2681 96V94L42.0001 93Z" fill="url(#paint2_linear_8_1436)"/>
<path d="M30.0001 93L31.7322 94V96L30.0001 97L28.2681 96V94L30.0001 93Z" fill="url(#paint3_linear_8_1436)"/>
<defs>
<linearGradient id="paint0_linear_8_1436" x1="36" y1="69" x2="36" y2="92.0021" gradientUnits="userSpaceOnUse">
<stop stop-color="#95B6F6"/>
<stop offset="1" stop-color="#5193DE"/>
</linearGradient>
<linearGradient id="paint1_linear_8_1436" x1="36.0001" y1="93" x2="36.0001" y2="97" gradientUnits="userSpaceOnUse">
<stop stop-color="#CED3EA"/>
<stop offset="1" stop-color="#7E83A9"/>
</linearGradient>
<linearGradient id="paint2_linear_8_1436" x1="42.0001" y1="93" x2="42.0001" y2="97" gradientUnits="userSpaceOnUse">
<stop stop-color="#CED3EA"/>
<stop offset="1" stop-color="#7E83A9"/>
</linearGradient>
<linearGradient id="paint3_linear_8_1436" x1="30.0001" y1="93" x2="30.0001" y2="97" gradientUnits="userSpaceOnUse">
<stop stop-color="#CED3EA"/>
<stop offset="1" stop-color="#7E83A9"/>
</linearGradient>
</defs>
</svg>
