<svg width="72" height="119" viewBox="0 0 72 119" fill="none" xmlns="http://www.w3.org/2000/svg">
<rect x="0.5" y="0.5" width="71" height="118" rx="4.5" stroke="#7B61FF" stroke-dasharray="10 5"/>
<path fill-rule="evenodd" clip-rule="evenodd" d="M43 40.3638C43 43.1811 40.1867 46 36 46C31.8133 46 29 43.1811 29 40.3638C29 37.4416 30.9006 33.8024 33.1345 30.6343C34.1442 29.2024 35.1575 27.9551 35.95 27.0337C36.7575 28.0271 37.8053 29.3794 38.8493 30.9055C39.9378 32.4967 40.9966 34.2398 41.7767 35.9363C42.5711 37.6638 43 39.1806 43 40.3638ZM27 40.3638C27 34.927 32.1312 28.371 34.6448 25.4856C35.4601 24.5497 36 24 36 24C36 24 36.5172 24.5718 37.3037 25.5295C39.7979 28.567 45 35.4867 45 40.3638C45 44.5812 40.9706 48 36 48C31.0294 48 27 44.5812 27 40.3638ZM31.4983 37H33.6499C33.2451 37.9239 33 38.8001 33 39.5455C33 40.6901 34.1196 42 36 42V44C33.2386 44 31 42.0057 31 39.5455C31 38.7246 31.191 37.86 31.4983 37Z" fill="white"/>
<path fill-rule="evenodd" clip-rule="evenodd" d="M43 87.3638C43 90.1811 40.1867 93 36 93C31.8133 93 29 90.1811 29 87.3638C29 84.4416 30.9006 80.8024 33.1345 77.6343C34.1442 76.2024 35.1575 74.9551 35.95 74.0337C36.7575 75.0271 37.8053 76.3794 38.8493 77.9055C39.9378 79.4967 40.9966 81.2398 41.7767 82.9363C42.5711 84.6638 43 86.1806 43 87.3638ZM27 87.3638C27 81.927 32.1312 75.371 34.6448 72.4856C35.4601 71.5497 36 71 36 71C36 71 36.5172 71.5718 37.3037 72.5295C39.7979 75.567 45 82.4867 45 87.3638C45 91.5812 40.9706 95 36 95C31.0294 95 27 91.5812 27 87.3638ZM31.4983 84H33.6499C33.2451 84.9239 33 85.8001 33 86.5455C33 87.6901 34.1196 89 36 89V91C33.2386 91 31 89.0057 31 86.5455C31 85.7246 31.191 84.86 31.4983 84Z" fill="url(#paint0_linear_8_577)"/>
<defs>
<linearGradient id="paint0_linear_8_577" x1="36" y1="71" x2="36" y2="95" gradientUnits="userSpaceOnUse">
<stop stop-color="#95B6F6"/>
<stop offset="1" stop-color="#5193DE"/>
</linearGradient>
</defs>
</svg>
