<svg width="72" height="120" viewBox="0 0 72 120" fill="none" xmlns="http://www.w3.org/2000/svg">
<rect x="0.5" y="0.5" width="71" height="119" rx="4.5" stroke="#7B61FF" stroke-dasharray="10 5"/>
<path fill-rule="evenodd" clip-rule="evenodd" d="M44.1091 33.312C45.6078 33.2633 47.031 32.6543 48.0936 31.6095C48.6413 31.0636 49.0811 30.4121 49.3787 29.6886C49.7813 30.8494 49.9998 32.095 49.9998 33.3911C49.9998 38.4915 46.6156 42.809 41.9501 44.2606C41.9864 44.5035 42.0052 44.7522 42.0052 45.0053C42.0052 47.7681 39.7654 50.0079 37.0026 50.0079C36.9091 50.0079 36.8162 50.0053 36.724 50.0002H29.5049V49.9988L29.4986 49.9988C25.3543 49.9988 21.9946 46.671 21.9946 42.5659C21.9946 39.257 24.1775 36.4531 27.1946 35.49C27.0667 34.8097 26.9998 34.1081 26.9998 33.3911C26.9998 27.1 32.1485 22 38.4998 22C39.3971 22 40.2703 22.1018 41.1084 22.2943C40.407 22.6595 39.7885 23.1591 39.2883 23.7586C38.3465 24.92 37.8847 26.3934 37.998 27.8807C38.1132 29.3917 38.8133 30.8004 39.952 31.8124C41.0907 32.8245 42.5801 33.3618 44.1091 33.312ZM29.1646 35.1403C29.2753 35.1355 29.3867 35.1331 29.4986 35.1331C32.741 35.1331 35.5031 37.1701 36.5517 40.0227C36.7002 40.0094 36.8506 40.0026 37.0026 40.0026C38.8024 40.0026 40.3803 40.9532 41.2616 42.3797C44.9137 41.2852 47.6239 38.0768 47.9638 34.2139C46.8233 34.8826 45.5221 35.2641 44.1754 35.3079C42.1268 35.3745 40.1313 34.6547 38.6057 33.2987C37.08 31.9427 36.1421 30.0554 35.9878 28.0309C35.886 26.696 36.1301 25.3696 36.6816 24.1715C32.2932 25.0113 28.9998 28.8333 28.9998 33.3911C28.9998 33.9885 29.0564 34.5732 29.1646 35.1403ZM29.5248 47.9987L29.4986 47.9988C26.4408 47.9988 23.9946 45.5485 23.9946 42.5659C23.9946 39.5833 26.4408 37.1331 29.4986 37.1331C31.8724 37.1331 33.8776 38.6098 34.6559 40.6659L34.661 40.6632C34.8839 41.2556 35.0057 41.8968 35.0057 42.5661C35.0057 42.6331 35.0044 42.6998 35.002 42.7661C35.5331 42.2913 36.2341 42.0026 37.0026 42.0026C38.6609 42.0026 40.0052 43.347 40.0052 45.0053C40.0052 46.6636 38.6609 48.0079 37.0026 48.0079H36.9998V48.0002H36.7869L36.7661 47.9987H32.994L32.9952 48.0002H32.9878L32.9867 47.9987H29.5248Z" fill="white"/>
<path fill-rule="evenodd" clip-rule="evenodd" d="M48.1115 78.5897C47.0473 79.6446 45.6171 80.2598 44.1106 80.3088C42.5818 80.3586 41.0927 79.8215 39.9542 78.8097C38.8157 77.7979 38.1158 76.3896 38.0006 74.879C37.8876 73.3955 38.3469 71.926 39.2842 70.7661C39.7855 70.1633 40.4062 69.6609 41.1107 69.2943C40.2726 69.1018 39.3994 69 38.5022 69C32.1522 69 27.0044 74.0985 27.0044 80.3879C27.0044 81.7731 27.2541 83.1006 27.7114 84.3285C28.2553 83.9409 28.8621 83.6344 29.5137 83.427C29.1835 82.473 29.0044 81.4504 29.0044 80.3879C29.0044 75.8319 32.2967 72.0111 36.6841 71.1715C36.1329 72.3691 35.889 73.6949 35.9907 75.0291C36.145 77.0531 37.0828 78.9399 38.6082 80.2955C40.1335 81.6511 42.1286 82.3707 44.1769 82.3041C45.5231 82.2603 46.8239 81.8791 47.964 81.2107C47.6 85.3461 44.5181 88.7314 40.4722 89.5739C40.8952 90.1027 41.1848 90.7408 41.2906 91.4386C46.2933 90.2043 50.0001 85.7249 50.0001 80.3879C50.0001 79.0922 49.7816 77.8471 49.3792 76.6867C49.0847 77.4023 48.6511 78.0476 48.1115 78.5897Z" fill="url(#paint0_linear_8_430)"/>
<path fill-rule="evenodd" clip-rule="evenodd" d="M29.5025 94.9909L29.5232 94.9909V94.9914H32.9899C32.9903 94.9919 32.9906 94.9923 32.9909 94.9927H32.998C32.9977 94.9923 32.9974 94.9919 32.9971 94.9914H36.7739C36.7797 94.9919 36.7855 94.9923 36.7913 94.9927H37.0024V95.0002C37.0032 95.0002 37.0041 95.0002 37.005 95.0002C38.6629 95.0002 40.0066 93.6563 40.0066 91.999C40.0066 90.3416 38.6629 88.9978 37.005 88.9978C36.2367 88.9978 35.5358 89.2864 35.0049 89.761C35.0073 89.6945 35.0086 89.6277 35.0086 89.5606C35.0086 88.8914 34.8868 88.2504 34.664 87.6581L34.6585 87.661C33.8805 85.6057 31.8759 84.1294 29.5025 84.1294C26.4454 84.1294 24 86.5789 24 89.5602C24 92.5414 26.4454 94.9909 29.5025 94.9909ZM36.7289 96.9927C36.8203 96.9977 36.9123 97.0002 37.005 97.0002C39.7673 97.0002 42.0066 94.7611 42.0066 91.999C42.0066 89.2369 39.7673 86.9978 37.005 86.9978C36.8531 86.9978 36.7028 87.0045 36.5544 87.0178C35.5061 84.1659 32.7444 82.1294 29.5025 82.1294C25.359 82.1294 22 85.4563 22 89.5602C22 93.6641 25.359 96.9909 29.5025 96.9909C29.5046 96.9909 29.5067 96.9909 29.5088 96.9909V96.9927L36.7289 96.9927Z" fill="url(#paint1_linear_8_430)"/>
<defs>
<linearGradient id="paint0_linear_8_430" x1="38.5022" y1="69" x2="38.5022" y2="91.4386" gradientUnits="userSpaceOnUse">
<stop stop-color="#F5BD52"/>
<stop offset="1" stop-color="#F5DA79"/>
</linearGradient>
<linearGradient id="paint1_linear_8_430" x1="32.0033" y1="82.1294" x2="32.0033" y2="97.0002" gradientUnits="userSpaceOnUse">
<stop stop-color="#B2D4F7"/>
<stop offset="1" stop-color="#D9E2F3"/>
</linearGradient>
</defs>
</svg>
