<svg width="72" height="119" viewBox="0 0 72 119" fill="none" xmlns="http://www.w3.org/2000/svg">
<rect x="0.5" y="0.5" width="71" height="118" rx="4.5" stroke="#7B61FF" stroke-dasharray="10 5"/>
<path fill-rule="evenodd" clip-rule="evenodd" d="M50 37C50 40.6028 47.375 43.57 44 43.9572V41.937C46.2205 41.5615 48 39.5486 48 37C48 34.1696 45.8053 32 43.2493 32C42.5272 32 41.8339 32.1732 41.2108 32.4855C41.1791 31.9037 41.0937 31.3367 40.9599 30.7899L40.9569 30.7911C40.0091 26.85 36.5839 24 32.6083 24C27.9218 24 24 27.9605 24 33C24 37.0657 26.5526 40.4291 30 41.5772V43.665C25.4024 42.4598 22 38.1419 22 33C22 26.9249 26.7495 22 32.6083 22C35.4013 22 37.9422 23.1192 39.8366 24.9488C40.9587 22.7245 43.5197 21.5143 46.0199 22.1847C46.3224 22.2658 46.612 22.3713 46.8871 22.4983C45.8142 22.6724 44.8941 23.4638 44.6104 24.5846C44.4703 25.1384 44.505 25.6956 44.6798 26.1976L44.6881 26.2288C44.7697 26.5259 44.9137 26.8021 45.1106 27.0391C45.2227 27.174 45.3504 27.2943 45.4908 27.3978C45.813 27.6787 46.2044 27.8902 46.647 28.0024C48.0002 28.3454 49.3727 27.6444 49.9137 26.4062C50.0538 27.167 50.0311 27.9702 49.8176 28.7672C49.4797 30.0293 48.7198 31.0656 47.7306 31.7647C49.1228 33.047 50 34.9172 50 37ZM45.8297 30.5296C46.2261 30.378 46.5919 30.1526 46.906 29.8654C46.8252 29.8679 46.7442 29.8681 46.6632 29.866C46.0642 29.8503 45.4755 29.7067 44.9363 29.445C44.3972 29.1832 43.9202 28.8093 43.5371 28.3482C43.154 27.8872 42.8737 27.3496 42.7149 26.7714C42.5561 26.1932 42.5225 25.5877 42.6164 24.9955C42.6368 24.8665 42.6632 24.7388 42.6954 24.6128C42.0689 25.0518 41.5872 25.7054 41.3737 26.5031C41.3539 26.5769 41.3367 26.6508 41.3221 26.7247C41.9865 27.7148 42.4979 28.8234 42.821 30.0139C42.9626 30.0047 43.1054 30 43.2493 30C44.1632 30 45.0347 30.1883 45.8297 30.5296ZM34.0021 47.456C34.0022 47.792 33.7442 48.0021 33.5021 48.0021C33.2599 48.0021 33.0018 47.792 33.0017 47.456C33.0015 47.0277 33.1753 46.4437 33.4744 45.7937C33.5746 46.0045 33.6656 46.2136 33.7435 46.4167C33.9389 46.9262 34.0021 47.272 34.0021 47.456ZM33.5002 42C33.5002 42 32.9029 42.7302 32.2923 43.7572C31.654 44.8309 31.0013 46.229 31.0017 47.456C31.0021 48.8622 32.1218 50.0021 33.5027 50.0021C34.8835 50.0021 36.0025 48.8622 36.0021 47.456C36.0018 46.3379 35.318 44.8977 34.6655 43.7777C34.0699 42.7554 33.5002 42 33.5002 42ZM39.5021 45.0021C39.7442 45.0021 40.0022 44.792 40.0021 44.456C40.0021 44.272 39.9389 43.9262 39.7435 43.4167C39.6656 43.2136 39.5746 43.0045 39.4744 42.7937C39.1753 43.4437 39.0015 44.0277 39.0017 44.456C39.0018 44.792 39.2599 45.0021 39.5021 45.0021ZM38.2923 40.7572C38.9029 39.7302 39.5002 39 39.5002 39C39.5002 39 40.0699 39.7554 40.6655 40.7777C41.318 41.8977 42.0018 43.3379 42.0021 44.456C42.0025 45.8622 40.8835 47.0021 39.5027 47.0021C38.1218 47.0021 37.0021 45.8622 37.0017 44.456C37.0013 43.229 37.654 41.8309 38.2923 40.7572Z" fill="white"/>
<path fill-rule="evenodd" clip-rule="evenodd" d="M49.8175 76.7672C50.0309 75.9702 50.0536 75.167 49.9136 74.4062C49.3725 75.6444 48.0001 76.3454 46.6469 76.0024C46.2042 75.8902 45.8129 75.6787 45.4906 75.3978C45.3503 75.2943 45.2225 75.174 45.1105 75.0391C44.9136 74.8021 44.7696 74.5259 44.688 74.2288L44.6797 74.1976C44.5048 73.6956 44.4701 73.1384 44.6103 72.5846C44.894 71.4638 45.814 70.6724 46.8869 70.4983C46.6119 70.3713 46.3223 70.2658 46.0197 70.1847C43.3256 69.4623 40.5608 70.9236 39.6021 73.4844C40.2284 74.0358 40.7853 74.6644 41.2578 75.3552C41.2598 75.0737 41.2973 74.7878 41.3735 74.5031C41.5871 73.7054 42.0688 73.0518 42.6953 72.6128C42.6631 72.7388 42.6367 72.8665 42.6163 72.9955C42.5224 73.5877 42.556 74.1932 42.7148 74.7714C42.8736 75.3496 43.1539 75.8872 43.537 76.3482C43.9201 76.8093 44.3971 77.1832 44.9362 77.445C45.4753 77.7067 46.0641 77.8503 46.6631 77.866C46.7441 77.8681 46.8251 77.8679 46.9058 77.8654C46.0846 78.6164 44.91 78.9448 43.7569 78.6356C43.3056 78.5146 42.9002 78.3074 42.5539 78.0364C42.6515 78.3519 42.734 78.6742 42.8004 79.0023C42.8666 79.0001 42.9331 78.999 42.9998 78.999C44.4182 78.999 45.7217 79.4915 46.7487 80.315C48.2073 79.6871 49.3747 78.4211 49.8175 76.7672Z" fill="url(#paint0_linear_8_832)"/>
<path fill-rule="evenodd" clip-rule="evenodd" d="M44 91.9572C47.375 91.57 50 88.6028 50 85C50 81.134 46.9776 78 43.2493 78C43.1054 78 42.9626 78.0047 42.821 78.0139C41.5661 73.3898 37.469 70 32.6083 70C26.7495 70 22 74.9249 22 81C22 86.1419 25.4024 90.4598 30 91.665V89.5772C26.5526 88.4291 24 85.0657 24 81C24 75.9605 27.9218 72 32.6083 72C36.5839 72 40.0091 74.85 40.9569 78.7911L40.9599 78.7899C41.0937 79.3367 41.1791 79.9037 41.2108 80.4855C41.8339 80.1732 42.5272 80 43.2493 80C45.8053 80 48 82.1696 48 85C48 87.5486 46.2205 89.5615 44 89.937V91.9572ZM33.5021 96.0021C33.7442 96.0021 34.0022 95.7921 34.0021 95.456C34.0021 95.272 33.9389 94.9263 33.7435 94.4168C33.6656 94.2136 33.5746 94.0045 33.4744 93.7938C33.1753 94.4437 33.0015 95.0277 33.0017 95.456C33.0018 95.7921 33.2599 96.0021 33.5021 96.0021ZM32.2923 91.7572C32.9029 90.7302 33.5002 90 33.5002 90C33.5002 90 34.0699 90.7554 34.6655 91.7778C35.318 92.8977 36.0018 94.3379 36.0021 95.456C36.0025 96.8622 34.8835 98.0021 33.5027 98.0021C32.1218 98.0021 31.0021 96.8622 31.0017 95.456C31.0013 94.229 31.654 92.8309 32.2923 91.7572ZM40.0021 92.456C40.0022 92.7921 39.7442 93.0021 39.5021 93.0021C39.2599 93.0021 39.0018 92.7921 39.0017 92.456C39.0015 92.0277 39.1753 91.4437 39.4744 90.7938C39.5746 91.0045 39.6656 91.2136 39.7435 91.4168C39.9389 91.9263 40.0021 92.272 40.0021 92.456ZM39.5002 87C39.5002 87 38.9029 87.7302 38.2923 88.7572C37.654 89.8309 37.0013 91.229 37.0017 92.456C37.0021 93.8622 38.1218 95.0021 39.5027 95.0021C40.8835 95.0021 42.0025 93.8622 42.0021 92.456C42.0018 91.3379 41.318 89.8977 40.6655 88.7778C40.0699 87.7554 39.5002 87 39.5002 87Z" fill="url(#paint1_linear_8_832)"/>
<defs>
<linearGradient id="paint0_linear_8_832" x1="44.802" y1="70.0002" x2="44.802" y2="80.315" gradientUnits="userSpaceOnUse">
<stop stop-color="#F5BD52"/>
<stop offset="1" stop-color="#F5DA79"/>
</linearGradient>
<linearGradient id="paint1_linear_8_832" x1="36" y1="70" x2="36" y2="98.0021" gradientUnits="userSpaceOnUse">
<stop stop-color="#95B6F6"/>
<stop offset="1" stop-color="#5193DE"/>
</linearGradient>
</defs>
</svg>
