<svg width="72" height="119" viewBox="0 0 72 119" fill="none" xmlns="http://www.w3.org/2000/svg">
<rect x="0.5" y="0.5" width="71" height="118" rx="4.5" stroke="#7B61FF" stroke-dasharray="10 5"/>
<path fill-rule="evenodd" clip-rule="evenodd" d="M50 37C50 40.6028 47.375 43.57 44 43.9572V41.937C46.2205 41.5615 48 39.5486 48 37C48 34.1696 45.8053 32 43.2493 32C42.5272 32 41.8339 32.1732 41.2108 32.4855C41.1791 31.9037 41.0937 31.3367 40.9599 30.7899L40.9569 30.7911C40.0091 26.85 36.5839 24 32.6083 24C27.9218 24 24 27.9605 24 33C24 37.0657 26.5526 40.4291 30 41.5772V43.665C25.4024 42.4598 22 38.1419 22 33C22 26.9249 26.7495 22 32.6083 22C34.6627 22 36.5808 22.6056 38.2055 23.654C39.452 22.6209 41.0525 22 42.798 22C46.7756 22 50.0001 25.2245 50.0001 29.2021C50.0001 30.6381 49.5798 31.9759 48.8556 33.0993C49.5783 34.2139 50 35.5559 50 37ZM47.4545 31.5237C47.8037 30.8249 48.0001 30.0364 48.0001 29.2021C48.0001 26.3291 45.671 24 42.798 24C41.6913 24 40.6653 24.3456 39.8221 24.9347C41.2318 26.2911 42.2853 28.04 42.821 30.0139C42.9626 30.0047 43.1054 30 43.2493 30C44.8393 30 46.301 30.57 47.4545 31.5237ZM34.0021 47.456C34.0022 47.7921 33.7442 48.0021 33.5021 48.0021C33.2599 48.0021 33.0018 47.7921 33.0017 47.456C33.0015 47.0277 33.1753 46.4437 33.4744 45.7938C33.5746 46.0045 33.6656 46.2136 33.7435 46.4168C33.9389 46.9263 34.0021 47.272 34.0021 47.456ZM33.5002 42C33.5002 42 32.9029 42.7302 32.2923 43.7572C31.654 44.8309 31.0013 46.229 31.0017 47.456C31.0021 48.8622 32.1218 50.0021 33.5027 50.0021C34.8835 50.0021 36.0025 48.8622 36.0021 47.456C36.0018 46.3379 35.318 44.8977 34.6655 43.7778C34.0699 42.7554 33.5002 42 33.5002 42ZM39.5021 45.0021C39.7442 45.0021 40.0022 44.7921 40.0021 44.456C40.0021 44.272 39.9389 43.9263 39.7435 43.4168C39.6656 43.2136 39.5746 43.0045 39.4744 42.7938C39.1753 43.4437 39.0015 44.0277 39.0017 44.456C39.0018 44.7921 39.2599 45.0021 39.5021 45.0021ZM38.2923 40.7572C38.9029 39.7302 39.5002 39 39.5002 39C39.5002 39 40.0699 39.7554 40.6655 40.7778C41.318 41.8977 42.0018 43.3379 42.0021 44.456C42.0025 45.8622 40.8835 47.0021 39.5027 47.0021C38.1218 47.0021 37.0021 45.8622 37.0017 44.456C37.0013 43.229 37.654 41.8309 38.2923 40.7572Z" fill="white"/>
<path fill-rule="evenodd" clip-rule="evenodd" d="M47.0693 80.1726C47.6561 79.3304 48.0002 78.3064 48.0002 77.2021C48.0002 74.3291 45.6711 72 42.7981 72C41.4845 72 40.2846 72.4869 39.369 73.2901C38.8431 72.8551 38.2719 72.4729 37.6636 72.1517C38.9701 70.8236 40.7879 70 42.7981 70C46.7757 70 50.0002 73.2245 50.0002 77.2021C50.0002 78.9899 49.3488 80.6255 48.2704 81.8846C47.9565 81.254 47.5502 80.6774 47.0693 80.1726Z" fill="url(#paint0_linear_8_761)"/>
<path fill-rule="evenodd" clip-rule="evenodd" d="M44 91.9572C47.375 91.57 50 88.6028 50 85C50 81.134 46.9776 78 43.2493 78C43.1054 78 42.9626 78.0047 42.821 78.0139C41.5661 73.3898 37.469 70 32.6083 70C26.7495 70 22 74.9249 22 81C22 86.1419 25.4024 90.4598 30 91.665V89.5772C26.5526 88.4291 24 85.0657 24 81C24 75.9605 27.9218 72 32.6083 72C36.5839 72 40.0091 74.85 40.9569 78.7911L40.9599 78.7899C41.0937 79.3367 41.1791 79.9037 41.2108 80.4855C41.8339 80.1732 42.5272 80 43.2493 80C45.8053 80 48 82.1696 48 85C48 87.5486 46.2205 89.5615 44 89.937V91.9572ZM33.5021 96.0021C33.7442 96.0021 34.0022 95.7921 34.0021 95.456C34.0021 95.272 33.9389 94.9263 33.7435 94.4168C33.6656 94.2136 33.5746 94.0045 33.4744 93.7938C33.1753 94.4437 33.0015 95.0277 33.0017 95.456C33.0018 95.7921 33.2599 96.0021 33.5021 96.0021ZM32.2923 91.7572C32.9029 90.7302 33.5002 90 33.5002 90C33.5002 90 34.0699 90.7554 34.6655 91.7778C35.318 92.8977 36.0018 94.3379 36.0021 95.456C36.0025 96.8622 34.8835 98.0021 33.5027 98.0021C32.1218 98.0021 31.0021 96.8622 31.0017 95.456C31.0013 94.229 31.654 92.8309 32.2923 91.7572ZM40.0021 92.456C40.0022 92.7921 39.7442 93.0021 39.5021 93.0021C39.2599 93.0021 39.0018 92.7921 39.0017 92.456C39.0015 92.0277 39.1753 91.4437 39.4744 90.7938C39.5746 91.0045 39.6656 91.2136 39.7435 91.4168C39.9389 91.9263 40.0021 92.272 40.0021 92.456ZM39.5002 87C39.5002 87 38.9029 87.7302 38.2923 88.7572C37.654 89.8309 37.0013 91.229 37.0017 92.456C37.0021 93.8622 38.1218 95.0021 39.5027 95.0021C40.8835 95.0021 42.0025 93.8622 42.0021 92.456C42.0018 91.3379 41.318 89.8977 40.6655 88.7778C40.0699 87.7554 39.5002 87 39.5002 87Z" fill="url(#paint1_linear_8_761)"/>
<defs>
<linearGradient id="paint0_linear_8_761" x1="43.8319" y1="70" x2="43.8319" y2="81.8846" gradientUnits="userSpaceOnUse">
<stop stop-color="#EFC977"/>
<stop offset="1" stop-color="#E07256"/>
</linearGradient>
<linearGradient id="paint1_linear_8_761" x1="36" y1="70" x2="36" y2="98.0021" gradientUnits="userSpaceOnUse">
<stop stop-color="#95B6F6"/>
<stop offset="1" stop-color="#5193DE"/>
</linearGradient>
</defs>
</svg>
