<svg width="72" height="119" viewBox="0 0 72 119" fill="none" xmlns="http://www.w3.org/2000/svg">
<rect x="0.5" y="0.5" width="71" height="118" rx="4.5" stroke="#7B61FF" stroke-dasharray="10 5"/>
<path fill-rule="evenodd" clip-rule="evenodd" d="M30 43.665C25.4024 42.4598 22 38.1419 22 33C22 26.9249 26.7495 22 32.6083 22C34.9052 22 37.0317 22.757 38.7682 24.0435C39.9536 22.7854 41.6351 22 43.5 22C47.0898 22 50 24.9101 50 28.5C50 30.0673 49.4453 31.5051 48.5214 32.6277C49.4467 33.8256 50 35.3458 50 37C50 40.866 46.9776 44 43.2493 44C43.1658 44 43.0827 43.9984 43 43.9953V42H43.3029V41.9996C45.8359 41.9695 48 39.8105 48 37C48 34.1696 45.8053 32 43.2493 32C42.5272 32 41.8339 32.1732 41.2108 32.4855C41.1791 31.9037 41.0937 31.3367 40.9599 30.7899L40.9569 30.7911C40.0091 26.85 36.5839 24 32.6083 24C27.9218 24 24 27.9605 24 33C24 37.0657 26.5526 40.4291 30 41.5772V43.665ZM47.0758 31.2324C47.6555 30.4748 48 29.5276 48 28.5C48 26.0147 45.9853 24 43.5 24C42.2266 24 41.0767 24.5289 40.2581 25.3791C41.4493 26.6644 42.3421 28.2492 42.821 30.0139C42.9626 30.0047 43.1054 30 43.2493 30C44.67 30 45.9882 30.4551 47.0758 31.2324ZM33.168 42.4453L37.168 36.4453L38.8321 37.5547L35.8685 42H39H40.9558L39.8107 43.5855L35.4773 49.5855L33.856 48.4145L37.0442 44H34H32.1315L33.168 42.4453Z" fill="white"/>
<path fill-rule="evenodd" clip-rule="evenodd" d="M37.1681 83.4453L38.8322 84.5547L35.8686 89H40.9559L35.4775 96.5855L33.8561 95.4145L37.0444 91H32.1316L37.1681 83.4453Z" fill="url(#paint0_linear_8_1126)"/>
<path fill-rule="evenodd" clip-rule="evenodd" d="M47.9785 80.2109C49.2237 79.0268 50 77.354 50 75.5C50 71.9101 47.0898 69 43.5 69C41.2543 69 39.2746 70.1388 38.1069 71.8705C38.6177 72.3536 39.0801 72.8875 39.4858 73.4641C40.2289 72.0018 41.7474 71 43.5 71C45.9853 71 48 73.0147 48 75.5C48 76.606 47.601 77.6188 46.939 78.4024C47.3766 78.9406 47.7298 79.5502 47.9785 80.2109Z" fill="url(#paint1_linear_8_1126)"/>
<path fill-rule="evenodd" clip-rule="evenodd" d="M30 90.665C25.4024 89.4598 22 85.1419 22 80C22 73.9249 26.7495 69 32.6083 69C37.469 69 41.5661 72.3898 42.821 77.0139C42.9626 77.0047 43.1054 77 43.2493 77C46.9776 77 50 80.134 50 84C50 87.866 46.9776 91 43.2493 91C43.1658 91 43.0827 90.9984 43 90.9953V89H43.3029V88.9996C45.8359 88.9695 48 86.8105 48 84C48 81.1696 45.8053 79 43.2493 79C42.5272 79 41.8339 79.1732 41.2108 79.4855C41.1791 78.9037 41.0937 78.3367 40.9599 77.7899L40.9569 77.7911C40.0091 73.85 36.5839 71 32.6083 71C27.9218 71 24 74.9605 24 80C24 84.0657 26.5526 87.4291 30 88.5772V90.665Z" fill="url(#paint2_linear_8_1126)"/>
<defs>
<linearGradient id="paint0_linear_8_1126" x1="36.5437" y1="83.4453" x2="36.5437" y2="96.5855" gradientUnits="userSpaceOnUse">
<stop stop-color="#F5BD52"/>
<stop offset="1" stop-color="#F5DA79"/>
</linearGradient>
<linearGradient id="paint1_linear_8_1126" x1="44.0535" y1="69" x2="44.0535" y2="80.2109" gradientUnits="userSpaceOnUse">
<stop stop-color="#EFC977"/>
<stop offset="1" stop-color="#E07256"/>
</linearGradient>
<linearGradient id="paint2_linear_8_1126" x1="36" y1="69" x2="36" y2="91" gradientUnits="userSpaceOnUse">
<stop stop-color="#95B6F6"/>
<stop offset="1" stop-color="#5193DE"/>
</linearGradient>
</defs>
</svg>
