<svg width="72" height="119" viewBox="0 0 72 119" fill="none" xmlns="http://www.w3.org/2000/svg">
<rect x="0.5" y="0.5" width="71" height="118" rx="4.5" stroke="#7B61FF" stroke-dasharray="10 5"/>
<path fill-rule="evenodd" clip-rule="evenodd" d="M28 42.9107C24.4494 41.1323 22 37.3628 22 33C22 26.9249 26.7495 22 32.6083 22C35.4013 22 37.9422 23.1192 39.8366 24.9488C40.9587 22.7245 43.5197 21.5143 46.0199 22.1847C46.3224 22.2658 46.612 22.3713 46.8871 22.4983C45.8142 22.6724 44.8941 23.4638 44.6104 24.5846C44.4703 25.1384 44.505 25.6956 44.6798 26.1976L44.6881 26.2288C44.7697 26.5259 44.9137 26.8021 45.1106 27.0391C45.2227 27.174 45.3504 27.2943 45.4908 27.3978C45.813 27.6787 46.2044 27.8902 46.647 28.0024C48.0002 28.3454 49.3727 27.6444 49.9137 26.4062C50.0538 27.167 50.0311 27.9702 49.8176 28.7672C49.4797 30.0293 48.7198 31.0656 47.7306 31.7647C49.1228 33.047 50 34.9172 50 37C50 39.8501 48.3573 42.3025 46 43.3944V41.0745C47.1984 40.1797 48 38.7105 48 37C48 34.1696 45.8053 32 43.2493 32C42.5272 32 41.8339 32.1732 41.2108 32.4855C41.1791 31.9037 41.0937 31.3367 40.9599 30.7899L40.9569 30.7911C40.0091 26.85 36.5839 24 32.6083 24C27.9218 24 24 27.9605 24 33C24 36.2291 25.6102 39.0152 28 40.6003V42.9107ZM45.8297 30.5296C46.2261 30.378 46.5919 30.1526 46.906 29.8654C46.8252 29.8679 46.7442 29.8681 46.6632 29.866C46.0642 29.8503 45.4755 29.7067 44.9363 29.445C44.3972 29.1832 43.9202 28.8093 43.5371 28.3482C43.154 27.8872 42.8737 27.3496 42.7149 26.7714C42.5561 26.1932 42.5225 25.5877 42.6164 24.9955C42.6368 24.8665 42.6632 24.7388 42.6954 24.6128C42.0689 25.0518 41.5872 25.7054 41.3737 26.5031C41.3539 26.5769 41.3367 26.6508 41.3221 26.7247C41.9865 27.7148 42.4979 28.8234 42.821 30.0139C42.9626 30.0047 43.1054 30 43.2493 30C44.1632 30 45.0347 30.1883 45.8297 30.5296ZM39.4251 39.9798C39.2571 40.2708 38.9287 40.3237 38.719 40.2026C38.5093 40.0815 38.3908 39.7705 38.5588 39.4794C38.7729 39.1084 39.2154 38.6896 39.7995 38.2764C39.7808 38.5091 39.7551 38.7356 39.721 38.9505C39.6353 39.4894 39.5171 39.8204 39.4251 39.9798ZM41.7192 35.0041C41.7192 35.0041 40.8367 35.3377 39.7944 35.9217C38.7047 36.5322 37.4402 37.4164 36.8269 38.4792C36.124 39.697 36.5235 41.2442 37.7192 41.9348C38.915 42.6254 40.4541 42.1979 41.157 40.9801C41.7159 40.0116 41.8441 38.4225 41.8392 37.1264C41.8347 35.9432 41.7192 35.0041 41.7192 35.0041ZM32.8223 40.9975C32.6543 41.2885 32.3258 41.3414 32.1161 41.2203C31.9064 41.0992 31.788 40.7882 31.9559 40.4971C32.17 40.1261 32.6126 39.7073 33.1966 39.2941C33.178 39.5268 33.1522 39.7533 33.1181 39.9682C33.0325 40.5071 32.9142 40.8381 32.8223 40.9975ZM35.1164 36.0218C35.1164 36.0218 34.2339 36.3554 33.1916 36.9394C32.1018 37.5499 30.8374 38.4341 30.224 39.4969C29.5211 40.7147 29.9207 42.2619 31.1164 42.9525C32.3121 43.6431 33.8513 43.2156 34.5541 41.9978C35.1131 41.0293 35.2413 39.4402 35.2363 38.1441C35.2318 36.9609 35.1164 36.0218 35.1164 36.0218ZM40.9732 46.3356C41.1829 46.4567 41.5113 46.4038 41.6793 46.1128C41.7713 45.9534 41.8895 45.6224 41.9752 45.0835C42.0093 44.8687 42.0351 44.6421 42.0537 44.4094C41.4696 44.8226 41.0271 45.2415 40.813 45.6125C40.645 45.9035 40.7635 46.2145 40.9732 46.3356ZM42.0486 42.0547C43.0909 41.4707 43.9734 41.1371 43.9734 41.1371C43.9734 41.1371 44.0889 42.0762 44.0934 43.2594C44.0983 44.5556 43.9701 46.1446 43.4112 47.1131C42.7083 48.331 41.1692 48.7584 39.9734 48.0678C38.7777 47.3772 38.3782 45.8301 39.0811 44.6122C39.6944 43.5494 40.9589 42.6653 42.0486 42.0547ZM34.961 47.7147C34.793 48.0057 34.4645 48.0586 34.2549 47.9375C34.0452 47.8164 33.9267 47.5054 34.0947 47.2144C34.3088 46.8433 34.7513 46.4245 35.3354 46.0113C35.3167 46.244 35.291 46.4706 35.2568 46.6854C35.1712 47.2243 35.053 47.5553 34.961 47.7147ZM37.2551 42.739C37.2551 42.739 36.3726 43.0726 35.3303 43.6566C34.2406 44.2671 32.9761 45.1513 32.3628 46.2141C31.6599 47.432 32.0594 48.9791 33.2551 49.6697C34.4509 50.3603 35.99 49.9329 36.6929 48.715C37.2518 47.7465 37.38 46.1574 37.3751 44.8613C37.3706 43.6781 37.2551 42.739 37.2551 42.739Z" fill="white"/>
<path fill-rule="evenodd" clip-rule="evenodd" d="M28 42.9107C24.4494 41.1323 22 37.3628 22 33C22 26.9249 26.7495 22 32.6083 22C35.4013 22 37.9422 23.1192 39.8366 24.9488C40.9587 22.7245 43.5197 21.5143 46.0199 22.1847C46.3224 22.2658 46.612 22.3713 46.8871 22.4983C45.8142 22.6724 44.8941 23.4638 44.6104 24.5846C44.4703 25.1384 44.505 25.6956 44.6798 26.1976L44.6881 26.2288C44.7697 26.5259 44.9137 26.8021 45.1106 27.0391C45.2227 27.174 45.3504 27.2943 45.4908 27.3978C45.813 27.6787 46.2044 27.8902 46.647 28.0024C48.0002 28.3454 49.3727 27.6444 49.9137 26.4062C50.0538 27.167 50.0311 27.9702 49.8176 28.7672C49.4797 30.0293 48.7198 31.0656 47.7306 31.7647C49.1228 33.047 50 34.9172 50 37C50 39.8501 48.3573 42.3025 46 43.3944V41.0745C47.1984 40.1797 48 38.7105 48 37C48 34.1696 45.8053 32 43.2493 32C42.5272 32 41.8339 32.1732 41.2108 32.4855C41.1791 31.9037 41.0937 31.3367 40.9599 30.7899L40.9569 30.7911C40.0091 26.85 36.5839 24 32.6083 24C27.9218 24 24 27.9605 24 33C24 36.2291 25.6102 39.0152 28 40.6003V42.9107ZM45.8297 30.5296C46.2261 30.378 46.5919 30.1526 46.906 29.8654C46.8252 29.8679 46.7442 29.8681 46.6632 29.866C46.0642 29.8503 45.4755 29.7067 44.9363 29.445C44.3972 29.1832 43.9202 28.8093 43.5371 28.3482C43.154 27.8872 42.8737 27.3496 42.7149 26.7714C42.5561 26.1932 42.5225 25.5877 42.6164 24.9955C42.6368 24.8665 42.6632 24.7388 42.6954 24.6128C42.0689 25.0518 41.5872 25.7054 41.3737 26.5031C41.3539 26.5769 41.3367 26.6508 41.3221 26.7247C41.9865 27.7148 42.4979 28.8234 42.821 30.0139C42.9626 30.0047 43.1054 30 43.2493 30C44.1632 30 45.0347 30.1883 45.8297 30.5296ZM39.4251 39.9798C39.2571 40.2708 38.9287 40.3237 38.719 40.2026C38.5093 40.0815 38.3908 39.7705 38.5588 39.4794C38.7729 39.1084 39.2154 38.6896 39.7995 38.2764C39.7808 38.5091 39.7551 38.7356 39.721 38.9505C39.6353 39.4894 39.5171 39.8204 39.4251 39.9798ZM41.7192 35.0041C41.7192 35.0041 40.8367 35.3377 39.7944 35.9217C38.7047 36.5322 37.4402 37.4164 36.8269 38.4792C36.124 39.697 36.5235 41.2442 37.7192 41.9348C38.915 42.6254 40.4541 42.1979 41.157 40.9801C41.7159 40.0116 41.8441 38.4225 41.8392 37.1264C41.8347 35.9432 41.7192 35.0041 41.7192 35.0041ZM32.8223 40.9975C32.6543 41.2885 32.3258 41.3414 32.1161 41.2203C31.9064 41.0992 31.788 40.7882 31.9559 40.4971C32.17 40.1261 32.6126 39.7073 33.1966 39.2941C33.178 39.5268 33.1522 39.7533 33.1181 39.9682C33.0325 40.5071 32.9142 40.8381 32.8223 40.9975ZM35.1164 36.0218C35.1164 36.0218 34.2339 36.3554 33.1916 36.9394C32.1018 37.5499 30.8374 38.4341 30.224 39.4969C29.5211 40.7147 29.9207 42.2619 31.1164 42.9525C32.3121 43.6431 33.8513 43.2156 34.5541 41.9978C35.1131 41.0293 35.2413 39.4402 35.2363 38.1441C35.2318 36.9609 35.1164 36.0218 35.1164 36.0218ZM40.9732 46.3356C41.1829 46.4567 41.5113 46.4038 41.6793 46.1128C41.7713 45.9534 41.8895 45.6224 41.9752 45.0835C42.0093 44.8687 42.0351 44.6421 42.0537 44.4094C41.4696 44.8226 41.0271 45.2415 40.813 45.6125C40.645 45.9035 40.7635 46.2145 40.9732 46.3356ZM42.0486 42.0547C43.0909 41.4707 43.9734 41.1371 43.9734 41.1371C43.9734 41.1371 44.0889 42.0762 44.0934 43.2594C44.0983 44.5556 43.9701 46.1446 43.4112 47.1131C42.7083 48.331 41.1692 48.7584 39.9734 48.0678C38.7777 47.3772 38.3782 45.8301 39.0811 44.6122C39.6944 43.5494 40.9589 42.6653 42.0486 42.0547ZM34.961 47.7147C34.793 48.0057 34.4645 48.0586 34.2549 47.9375C34.0452 47.8164 33.9267 47.5054 34.0947 47.2144C34.3088 46.8433 34.7513 46.4245 35.3354 46.0113C35.3167 46.244 35.291 46.4706 35.2568 46.6854C35.1712 47.2243 35.053 47.5553 34.961 47.7147ZM37.2551 42.739C37.2551 42.739 36.3726 43.0726 35.3303 43.6566C34.2406 44.2671 32.9761 45.1513 32.3628 46.2141C31.6599 47.432 32.0594 48.9791 33.2551 49.6697C34.4509 50.3603 35.99 49.9329 36.6929 48.715C37.2518 47.7465 37.38 46.1574 37.3751 44.8613C37.3706 43.6781 37.2551 42.739 37.2551 42.739Z" fill="white"/>
<path fill-rule="evenodd" clip-rule="evenodd" d="M49.8175 76.7672C50.0309 75.9702 50.0536 75.167 49.9136 74.4062C49.3725 75.6444 48.0001 76.3454 46.6469 76.0024C46.2042 75.8902 45.8129 75.6787 45.4906 75.3978C45.3503 75.2943 45.2225 75.174 45.1105 75.0391C44.9136 74.8021 44.7696 74.5259 44.688 74.2288L44.6797 74.1976C44.5048 73.6956 44.4701 73.1384 44.6103 72.5846C44.894 71.4638 45.814 70.6724 46.8869 70.4983C46.6119 70.3713 46.3223 70.2658 46.0197 70.1847C43.3256 69.4623 40.5608 70.9236 39.6021 73.4844C40.2284 74.0358 40.7853 74.6644 41.2578 75.3552C41.2598 75.0737 41.2973 74.7878 41.3735 74.5031C41.5871 73.7054 42.0688 73.0518 42.6953 72.6128C42.6631 72.7388 42.6367 72.8665 42.6163 72.9955C42.5224 73.5877 42.556 74.1932 42.7148 74.7714C42.8736 75.3496 43.1539 75.8872 43.537 76.3482C43.9201 76.8093 44.3971 77.1832 44.9362 77.445C45.4753 77.7067 46.0641 77.8503 46.6631 77.866C46.7441 77.8681 46.8251 77.8679 46.9058 77.8654C46.0846 78.6164 44.91 78.9448 43.7569 78.6356C43.3056 78.5146 42.9002 78.3074 42.5539 78.0364C42.6515 78.3519 42.734 78.6742 42.8004 79.0023C42.8666 79.0001 42.9331 78.999 42.9998 78.999C44.4182 78.999 45.7217 79.4915 46.7487 80.315C48.2073 79.6871 49.3747 78.4211 49.8175 76.7672Z" fill="url(#paint0_linear_8_650)"/>
<path fill-rule="evenodd" clip-rule="evenodd" d="M22 81C22 85.3628 24.4494 89.1323 28 90.9107V88.6003C25.6102 87.0152 24 84.2291 24 81C24 75.9605 27.9218 72 32.6083 72C36.5839 72 40.0091 74.85 40.9569 78.7911L40.9599 78.7899C41.0937 79.3367 41.1791 79.9037 41.2108 80.4855C41.8339 80.1732 42.5272 80 43.2493 80C45.8053 80 48 82.1696 48 85C48 86.7105 47.1984 88.1797 46 89.0745V91.3944C48.3573 90.3025 50 87.8501 50 85C50 81.134 46.9776 78 43.2493 78C43.1054 78 42.9626 78.0047 42.821 78.0139C41.5661 73.3898 37.469 70 32.6083 70C26.7495 70 22 74.9249 22 81ZM38.7189 88.2026C38.9286 88.3237 39.2571 88.2708 39.4251 87.9798C39.5171 87.8204 39.6353 87.4894 39.7209 86.9505C39.7551 86.7356 39.7808 86.509 39.7994 86.2764C39.2154 86.6896 38.7729 87.1084 38.5587 87.4794C38.3908 87.7704 38.5092 88.0815 38.7189 88.2026ZM39.7944 83.9217C40.8367 83.3377 41.7192 83.0041 41.7192 83.0041C41.7192 83.0041 41.8346 83.9432 41.8392 85.1264C41.8441 86.4225 41.7159 88.0116 41.157 88.98C40.4541 90.1979 38.9149 90.6254 37.7192 89.9348C36.5235 89.2442 36.1239 87.697 36.8268 86.4792C37.4402 85.4164 38.7046 84.5322 39.7944 83.9217ZM32.1161 89.2204C32.3258 89.3415 32.6543 89.2886 32.8222 88.9976C32.9142 88.8382 33.0324 88.5072 33.1181 87.9683C33.1522 87.7535 33.178 87.5269 33.1966 87.2942C32.6125 87.7074 32.17 88.1262 31.9559 88.4972C31.7879 88.7883 31.9064 89.0993 32.1161 89.2204ZM33.1915 84.9395C34.2339 84.3555 35.1164 84.0219 35.1164 84.0219C35.1164 84.0219 35.2318 84.961 35.2363 86.1442C35.2412 87.4403 35.1131 89.0294 34.5541 89.9979C33.8512 91.2157 32.3121 91.6432 31.1164 90.9526C29.9206 90.262 29.5211 88.7149 30.224 87.497C30.8374 86.4342 32.1018 85.55 33.1915 84.9395ZM41.6793 94.1128C41.5113 94.4039 41.1828 94.4567 40.9731 94.3356C40.7635 94.2145 40.645 93.9035 40.8129 93.6125C41.0271 93.2415 41.4696 92.8227 42.0537 92.4094C42.035 92.6421 42.0093 92.8687 41.9751 93.0835C41.8895 93.6224 41.7713 93.9535 41.6793 94.1128ZM43.9734 89.1372C43.9734 89.1372 43.0909 89.4708 42.0486 90.0547C40.9589 90.6653 39.6944 91.5495 39.0811 92.6122C38.3782 93.8301 38.7777 95.3772 39.9734 96.0678C41.1691 96.7584 42.7083 96.331 43.4112 95.1131C43.9701 94.1447 44.0983 92.5556 44.0934 91.2594C44.0889 90.0762 43.9734 89.1372 43.9734 89.1372ZM34.2548 95.9374C34.4645 96.0585 34.793 96.0057 34.961 95.7146C35.0529 95.5553 35.1712 95.2243 35.2568 94.6854C35.291 94.4705 35.3167 94.2439 35.3353 94.0112C34.7513 94.4245 34.3088 94.8433 34.0946 95.2143C33.9267 95.5053 34.0451 95.8163 34.2548 95.9374ZM35.3303 91.6565C36.3726 91.0726 37.2551 90.739 37.2551 90.739C37.2551 90.739 37.3705 91.678 37.375 92.8612C37.38 94.1574 37.2518 95.7465 36.6929 96.7149C35.99 97.9328 34.4508 98.3602 33.2551 97.6696C32.0594 96.979 31.6598 95.4319 32.3627 94.214C32.9761 93.1513 34.2405 92.2671 35.3303 91.6565Z" fill="url(#paint1_linear_8_650)"/>
<defs>
<linearGradient id="paint0_linear_8_650" x1="44.802" y1="70.0002" x2="44.802" y2="80.315" gradientUnits="userSpaceOnUse">
<stop stop-color="#F5BD52"/>
<stop offset="1" stop-color="#F5DA79"/>
</linearGradient>
<linearGradient id="paint1_linear_8_650" x1="36" y1="70" x2="36" y2="97.9999" gradientUnits="userSpaceOnUse">
<stop stop-color="#95B6F6"/>
<stop offset="1" stop-color="#5193DE"/>
</linearGradient>
</defs>
</svg>
