<svg width="72" height="119" viewBox="0 0 72 119" fill="none" xmlns="http://www.w3.org/2000/svg">
<rect x="0.5" y="0.5" width="71" height="118" rx="4.5" stroke="#7B61FF" stroke-dasharray="10 5"/>
<path fill-rule="evenodd" clip-rule="evenodd" d="M29 43.3473C24.9175 41.8163 22 37.7615 22 33C22 26.9249 26.7495 22 32.6083 22C37.469 22 41.5661 25.3898 42.821 30.0139C42.9626 30.0047 43.1054 30 43.2493 30C46.9776 30 50 33.134 50 37C50 40.6028 47.375 43.57 44 43.9572V41.937C46.2205 41.5615 48 39.5486 48 37C48 34.1696 45.8053 32 43.2493 32C42.5272 32 41.8339 32.1732 41.2108 32.4855C41.1791 31.9037 41.0937 31.3367 40.9599 30.7899L40.9569 30.7911C40.0091 26.85 36.5839 24 32.6083 24C27.9218 24 24 27.9605 24 33C24 36.6616 26.0703 39.7535 29 41.1706V43.3473ZM34 38L33.2565 38.5204L33.4142 39.4142L32.5204 39.2565L32 40L31.4796 39.2565L30.5858 39.4142L30.7435 38.5204L30 38L30.7435 37.4796L30.5858 36.5858L31.4796 36.7435L32 36L32.5204 36.7435L33.4142 36.5858L33.2565 37.4796L34 38ZM37.2565 41.5204L38 41L37.2565 40.4796L37.4142 39.5858L36.5204 39.7435L36 39L35.4796 39.7435L34.5858 39.5858L34.7435 40.4796L34 41L34.7435 41.5204L34.5858 42.4142L35.4796 42.2565L36 43L36.5204 42.2565L37.4142 42.4142L37.2565 41.5204ZM38 35L37.2565 35.5204L37.4142 36.4142L36.5204 36.2565L36 37L35.4796 36.2565L34.5858 36.4142L34.7435 35.5204L34 35L34.7435 34.4796L34.5858 33.5858L35.4796 33.7435L36 33L36.5204 33.7435L37.4142 33.5858L37.2565 34.4796L38 35ZM41.2565 38.5204L42 38L41.2565 37.4796L41.4142 36.5858L40.5204 36.7435L40 36L39.4796 36.7435L38.5858 36.5858L38.7435 37.4796L38 38L38.7435 38.5204L38.5858 39.4142L39.4796 39.2565L40 40L40.5204 39.2565L41.4142 39.4142L41.2565 38.5204ZM32.5021 48.0021C32.7442 48.0021 33.0022 47.7921 33.0021 47.456C33.0021 47.272 32.9389 46.9263 32.7435 46.4168C32.6656 46.2136 32.5746 46.0045 32.4744 45.7938C32.1753 46.4437 32.0015 47.0277 32.0017 47.456C32.0018 47.7921 32.2599 48.0021 32.5021 48.0021ZM31.2923 43.7572C31.9029 42.7302 32.5002 42 32.5002 42C32.5002 42 33.0699 42.7554 33.6655 43.7778C34.318 44.8977 35.0018 46.3379 35.0021 47.456C35.0025 48.8622 33.8835 50.0021 32.5027 50.0021C31.1218 50.0021 30.0021 48.8622 30.0017 47.456C30.0013 46.229 30.654 44.8309 31.2923 43.7572ZM40.0021 47.456C40.0022 47.7921 39.7442 48.0021 39.5021 48.0021C39.2599 48.0021 39.0018 47.7921 39.0017 47.456C39.0015 47.0277 39.1753 46.4437 39.4744 45.7938C39.5746 46.0045 39.6656 46.2136 39.7435 46.4168C39.9389 46.9263 40.0021 47.272 40.0021 47.456ZM39.5002 42C39.5002 42 38.9029 42.7302 38.2923 43.7572C37.654 44.8309 37.0013 46.229 37.0017 47.456C37.0021 48.8622 38.1218 50.0021 39.5027 50.0021C40.8835 50.0021 42.0025 48.8622 42.0021 47.456C42.0018 46.3379 41.318 44.8977 40.6655 43.7778C40.0699 42.7554 39.5002 42 39.5002 42Z" fill="white"/>
<path fill-rule="evenodd" clip-rule="evenodd" d="M38 82L37.2565 82.5204L37.4142 83.4142L36.5204 83.2565L36 84L35.4796 83.2565L34.5858 83.4142L34.7435 82.5204L34 82L34.7435 81.4796L34.5858 80.5858L35.4796 80.7435L36 80L36.5204 80.7435L37.4142 80.5858L37.2565 81.4796L38 82ZM33.2565 85.5204L34 85L33.2565 84.4796L33.4142 83.5858L32.5204 83.7435L32 83L31.4796 83.7435L30.5858 83.5858L30.7435 84.4796L30 85L30.7435 85.5204L30.5858 86.4142L31.4796 86.2565L32 87L32.5204 86.2565L33.4142 86.4142L33.2565 85.5204ZM37.2565 88.5204L38 88L37.2565 87.4796L37.4142 86.5858L36.5204 86.7435L36 86L35.4796 86.7435L34.5858 86.5858L34.7435 87.4796L34 88L34.7435 88.5204L34.5858 89.4142L35.4796 89.2565L36 90L36.5204 89.2565L37.4142 89.4142L37.2565 88.5204ZM41.2565 85.5204L42 85L41.2565 84.4796L41.4142 83.5858L40.5204 83.7435L40 83L39.4796 83.7435L38.5858 83.5858L38.7435 84.4796L38 85L38.7435 85.5204L38.5858 86.4142L39.4796 86.2565L40 87L40.5204 86.2565L41.4142 86.4142L41.2565 85.5204Z" fill="url(#paint0_linear_8_1272)"/>
<path fill-rule="evenodd" clip-rule="evenodd" d="M29 90.3473C24.9175 88.8163 22 84.7615 22 80C22 73.9249 26.7495 69 32.6083 69C37.469 69 41.5661 72.3898 42.821 77.0139C42.9626 77.0047 43.1054 77 43.2493 77C46.9776 77 50 80.134 50 84C50 87.6028 47.375 90.57 44 90.9572V88.937C46.2205 88.5615 48 86.5486 48 84C48 81.1696 45.8053 79 43.2493 79C42.5272 79 41.8339 79.1732 41.2108 79.4855C41.1791 78.9037 41.0937 78.3367 40.9599 77.7899L40.9569 77.7911C40.0091 73.85 36.5839 71 32.6083 71C27.9218 71 24 74.9605 24 80C24 83.6616 26.0703 86.7535 29 88.1706V90.3473Z" fill="url(#paint1_linear_8_1272)"/>
<path fill-rule="evenodd" clip-rule="evenodd" d="M32.5021 95.0021C32.7442 95.0021 33.0022 94.7921 33.0021 94.456C33.0021 94.272 32.9389 93.9263 32.7435 93.4168C32.6656 93.2136 32.5746 93.0045 32.4744 92.7938C32.1753 93.4437 32.0015 94.0277 32.0017 94.456C32.0018 94.7921 32.2599 95.0021 32.5021 95.0021ZM31.2923 90.7572C31.9029 89.7302 32.5002 89 32.5002 89C32.5002 89 33.0699 89.7554 33.6655 90.7778C34.318 91.8977 35.0018 93.3379 35.0021 94.456C35.0025 95.8622 33.8835 97.0021 32.5027 97.0021C31.1218 97.0021 30.0021 95.8622 30.0017 94.456C30.0013 93.229 30.654 91.8309 31.2923 90.7572Z" fill="url(#paint2_linear_8_1272)"/>
<path fill-rule="evenodd" clip-rule="evenodd" d="M39.5021 95.0021C39.7442 95.0021 40.0022 94.7921 40.0021 94.456C40.0021 94.272 39.9389 93.9263 39.7435 93.4168C39.6656 93.2136 39.5746 93.0045 39.4744 92.7938C39.1753 93.4437 39.0015 94.0277 39.0017 94.456C39.0018 94.7921 39.2599 95.0021 39.5021 95.0021ZM38.2923 90.7572C38.9029 89.7302 39.5002 89 39.5002 89C39.5002 89 40.0699 89.7554 40.6655 90.7778C41.318 91.8977 42.0018 93.3379 42.0021 94.456C42.0025 95.8622 40.8835 97.0021 39.5027 97.0021C38.1218 97.0021 37.0021 95.8622 37.0017 94.456C37.0013 93.229 37.654 91.8309 38.2923 90.7572Z" fill="url(#paint3_linear_8_1272)"/>
<defs>
<linearGradient id="paint0_linear_8_1272" x1="36" y1="80" x2="36" y2="90" gradientUnits="userSpaceOnUse">
<stop stop-color="#B2D4F7"/>
<stop offset="1" stop-color="#D9E2F3"/>
</linearGradient>
<linearGradient id="paint1_linear_8_1272" x1="36" y1="69" x2="36" y2="90.9572" gradientUnits="userSpaceOnUse">
<stop stop-color="#B2D4F7"/>
<stop offset="1" stop-color="#D9E2F3"/>
</linearGradient>
<linearGradient id="paint2_linear_8_1272" x1="32.5002" y1="89" x2="32.5002" y2="97.0021" gradientUnits="userSpaceOnUse">
<stop stop-color="#95B6F6"/>
<stop offset="1" stop-color="#5193DE"/>
</linearGradient>
<linearGradient id="paint3_linear_8_1272" x1="39.5002" y1="89" x2="39.5002" y2="97.0021" gradientUnits="userSpaceOnUse">
<stop stop-color="#95B6F6"/>
<stop offset="1" stop-color="#5193DE"/>
</linearGradient>
</defs>
</svg>
