<svg width="72" height="119" viewBox="0 0 72 119" fill="none" xmlns="http://www.w3.org/2000/svg">
<rect x="0.5" y="0.5" width="71" height="118" rx="4.5" stroke="#7B61FF" stroke-dasharray="10 5"/>
<path fill-rule="evenodd" clip-rule="evenodd" d="M33.9944 36.0012L28.8809 38.992L24.8277 37.1314L23.9956 38.9618L26.7617 40.2315L25.2402 41.1214L26.2305 42.859L27.7518 41.9693L27.4542 45.0305L29.4349 45.2156L29.871 40.7298L34.9868 37.7376V43.7528L31.3669 46.3801L32.5417 47.9988L34.9868 46.2241V48H36.9868V46.224L39.4321 47.9988L40.6069 46.3801L36.9868 43.7527V37.7514L42.1141 40.7503L42.5502 45.2367L44.531 45.0515L44.2333 41.9898L45.7549 42.8798L46.7452 41.1422L45.2239 40.2523L47.9896 38.9828L47.1575 37.1525L43.1047 39.0128L37.9556 36.0012L43.0888 32.9988L47.1684 34.8715L48.0005 33.0412L45.208 31.7593L46.7472 30.859L45.757 29.1214L44.2471 30.0045L44.5419 26.9725L42.5611 26.7873L42.1279 31.244L36.9868 34.251V28.2675L40.6301 25.6233L39.4554 24.0047L36.9868 25.7963V24H34.9868V25.7625L32.565 24.0047L31.3902 25.6233L34.9868 28.2337V34.2648L29.8867 31.2818L29.4478 26.7665L27.4671 26.9517L27.7675 30.0423L26.2285 29.1422L25.2382 30.8798L26.748 31.7628L24.0085 33.0204L24.8405 34.8507L28.8672 33.0023L33.9944 36.0012Z" fill="white"/>
<path fill-rule="evenodd" clip-rule="evenodd" d="M33.9944 83.0012L28.8809 85.992L24.8277 84.1314L23.9956 85.9618L26.7617 87.2315L25.2402 88.1214L26.2305 89.859L27.7518 88.9693L27.4542 92.0305L29.4349 92.2156L29.871 87.7298L34.9868 84.7376V90.7528L31.3669 93.3801L32.5417 94.9988L34.9868 93.2241V95H36.9868V93.224L39.4321 94.9988L40.6069 93.3801L36.9868 90.7527V84.7514L42.1141 87.7503L42.5502 92.2367L44.531 92.0515L44.2333 88.9898L45.7549 89.8798L46.7452 88.1422L45.2239 87.2523L47.9896 85.9828L47.1575 84.1525L43.1047 86.0128L37.9556 83.0012L43.0888 79.9988L47.1684 81.8715L48.0005 80.0412L45.208 78.7593L46.7472 77.859L45.757 76.1214L44.2471 77.0045L44.5419 73.9725L42.5611 73.7873L42.1279 78.244L36.9868 81.251V75.2675L40.6301 72.6233L39.4554 71.0047L36.9868 72.7963V71H34.9868V72.7625L32.565 71.0047L31.3902 72.6233L34.9868 75.2337V81.2648L29.8867 78.2818L29.4478 73.7665L27.4671 73.9517L27.7675 77.0423L26.2285 76.1422L25.2382 77.8798L26.748 78.7628L24.0085 80.0204L24.8405 81.8507L28.8672 80.0023L33.9944 83.0012Z" fill="url(#paint0_linear_8_1326)"/>
<defs>
<linearGradient id="paint0_linear_8_1326" x1="35.998" y1="71" x2="35.998" y2="95" gradientUnits="userSpaceOnUse">
<stop stop-color="#B2D4F7"/>
<stop offset="1" stop-color="#D9E2F3"/>
</linearGradient>
</defs>
</svg>
