<svg width="72" height="119" viewBox="0 0 72 119" fill="none" xmlns="http://www.w3.org/2000/svg">
<rect x="0.5" y="0.5" width="71" height="118" rx="4.5" stroke="#7B61FF" stroke-dasharray="10 5"/>
<path fill-rule="evenodd" clip-rule="evenodd" d="M34.0001 30.9944L34.0001 30.9885L28.3394 30.9884L33.7693 29.0263L33.7688 29.0247C33.8727 28.9985 33.9804 28.9892 34.0875 28.9972C34.1016 28.9982 34.1157 28.9996 34.1298 29.0012L34.13 29.0012C34.2771 29.0186 34.4184 29.0683 34.5439 29.147L34.5439 29.147C34.6694 29.2256 34.7759 29.3312 34.8556 29.456L34.8557 29.4562C34.9354 29.581 34.9864 29.722 35.0049 29.8689L35.005 29.8692C35.0235 30.0162 35.0092 30.1655 34.963 30.3062L34.963 30.3063C34.9168 30.4471 34.8398 30.5759 34.7378 30.6833L34.7377 30.6834C34.6356 30.7908 34.511 30.8742 34.3728 30.9275L34.3726 30.9276C34.3596 30.9326 34.3465 30.9373 34.3333 30.9418C34.226 30.9781 34.1133 30.9958 34.0001 30.9944ZM24 30.4296V32.9885L33.9796 32.9886C34.3586 32.9929 34.7355 32.9251 35.0903 32.7883L35.0905 32.7882C35.3605 32.684 35.6132 32.5415 35.8412 32.3657C35.9625 32.272 36.0768 32.169 36.183 32.0573L36.1831 32.0572C36.4886 31.7355 36.7189 31.3501 36.8573 30.9285L36.8573 30.9284C36.9956 30.5069 37.0386 30.0599 36.9831 29.6198L36.9831 29.6195C36.9275 29.1793 36.7749 28.757 36.5362 28.383L36.5361 28.3828C36.2974 28.0088 35.9785 27.6926 35.6026 27.457L35.6026 27.457C35.472 27.3751 35.3356 27.3037 35.1947 27.2431C34.9302 27.1295 34.65 27.0543 34.3625 27.0205L34.3623 27.0204C33.934 26.9701 33.5001 27.013 33.0901 27.1459L33.0898 27.145L33.0591 27.1561L33.0555 27.1573L33.0551 27.1575L33.0551 27.1576L24 30.4296ZM24 38.998V41.0525L37.2058 45.7506L37.2057 45.751C37.6836 45.9417 38.1977 46.0246 38.7113 45.9938C38.9088 45.982 39.1043 45.9534 39.2959 45.9088C39.6026 45.8373 39.8991 45.7245 40.1771 45.5728C40.6288 45.3264 41.0206 44.9833 41.3246 44.568C41.6286 44.1527 41.8372 43.6755 41.9357 43.1703C42.0342 42.6652 42.0201 42.1445 41.8943 41.6454C41.7686 41.1463 41.5344 40.6811 41.2083 40.283C41.0076 40.0379 40.7752 39.8219 40.5178 39.6404C40.357 39.527 40.1866 39.4271 40.008 39.3419C39.5443 39.1207 39.0376 39.0043 38.5239 39.0011V38.9981L24 38.998ZM38.5103 40.9983L29.8151 40.9982L37.9842 43.9045L37.9835 43.9065C38.1776 43.9782 38.3847 44.0089 38.5916 43.9964C38.8115 43.9833 39.0258 43.9217 39.2193 43.8162C39.4127 43.7106 39.5805 43.5637 39.7106 43.3859C39.8408 43.2081 39.9302 43.0037 39.9723 42.7874C40.0145 42.571 40.0085 42.3481 39.9546 42.1344C39.9008 41.9206 39.8005 41.7214 39.6608 41.5509C39.5212 41.3804 39.3457 41.2428 39.1468 41.1479C38.9483 41.0532 38.7312 41.0034 38.5112 41.002L38.5103 41.002L38.5103 41.0016L38.5103 40.9983ZM43.018 31.2481L43.0172 31.2486L42.0336 29.5072L42.0325 29.5051L42.0345 29.504C42.567 29.2035 43.1613 29.0291 43.7718 28.9942C43.8603 28.9891 43.9489 28.987 44.0373 28.9878C44.559 28.9927 45.0757 29.0996 45.5579 29.3036C46.1218 29.5421 46.6234 29.9069 47.0241 30.3699C47.4248 30.8329 47.7139 31.3817 47.8692 31.974C48.0245 32.5664 48.0417 33.1865 47.9197 33.7866C47.7976 34.3867 47.5395 34.9508 47.1651 35.4353C46.8451 35.8497 46.4474 36.1964 45.9952 36.4568C45.9185 36.5009 45.8403 36.5425 45.7606 36.5816C45.2108 36.8512 44.6066 36.9909 43.9944 36.99V36.9897H24V34.9897H43.9972L43.9972 34.9876C44.303 34.988 44.6049 34.9182 44.8795 34.7836C45.1541 34.6489 45.3941 34.453 45.5811 34.2109C45.7681 33.9689 45.897 33.6871 45.958 33.3874C46.019 33.0876 46.0104 32.7778 45.9328 32.4819C45.8552 32.186 45.7108 31.9119 45.5106 31.6806C45.3105 31.4493 45.0599 31.2671 44.7782 31.1479C44.4966 31.0288 44.1913 30.9759 43.886 30.9934C43.581 31.0108 43.2841 31.098 43.018 31.2481Z" fill="white"/>
<path fill-rule="evenodd" clip-rule="evenodd" d="M34.0001 77.9944L34.0001 77.9885L28.3394 77.9884L33.7693 76.0263L33.7688 76.0247C33.8727 75.9985 33.9804 75.9892 34.0875 75.9972C34.1016 75.9982 34.1157 75.9996 34.1298 76.0012L34.13 76.0012C34.2771 76.0186 34.4184 76.0683 34.5439 76.147L34.5439 76.147C34.6694 76.2256 34.7759 76.3312 34.8556 76.456L34.8557 76.4562C34.9354 76.581 34.9864 76.722 35.0049 76.8689L35.005 76.8692C35.0235 77.0162 35.0092 77.1655 34.963 77.3062L34.963 77.3063C34.9168 77.4471 34.8398 77.5759 34.7378 77.6833L34.7377 77.6834C34.6356 77.7908 34.511 77.8742 34.3728 77.9275L34.3726 77.9276C34.3596 77.9326 34.3465 77.9373 34.3333 77.9418C34.226 77.9781 34.1133 77.9958 34.0001 77.9944ZM24 77.4296V79.9885L33.9796 79.9886C34.3586 79.9929 34.7355 79.9251 35.0903 79.7883L35.0905 79.7882C35.3605 79.684 35.6132 79.5415 35.8412 79.3657C35.9625 79.272 36.0768 79.169 36.183 79.0573L36.1831 79.0572C36.4886 78.7355 36.7189 78.3501 36.8573 77.9285L36.8573 77.9284C36.9956 77.5069 37.0386 77.0599 36.9831 76.6198L36.9831 76.6195C36.9275 76.1793 36.7749 75.757 36.5362 75.383L36.5361 75.3828C36.2974 75.0088 35.9785 74.6926 35.6026 74.457L35.6026 74.457C35.472 74.3751 35.3356 74.3037 35.1947 74.2431C34.9302 74.1295 34.65 74.0543 34.3625 74.0205L34.3623 74.0204C33.934 73.9701 33.5001 74.013 33.0901 74.1459L33.0898 74.145L33.0591 74.1561L33.0555 74.1573L33.0551 74.1575L33.0551 74.1576L24 77.4296ZM24 85.998V88.0525L37.2058 92.7506L37.2057 92.751C37.6836 92.9417 38.1977 93.0246 38.7113 92.9938C38.9088 92.982 39.1043 92.9534 39.2959 92.9088C39.6026 92.8373 39.8991 92.7245 40.1771 92.5728C40.6288 92.3264 41.0206 91.9833 41.3246 91.568C41.6286 91.1527 41.8372 90.6755 41.9357 90.1703C42.0342 89.6652 42.0201 89.1445 41.8943 88.6454C41.7686 88.1463 41.5344 87.6811 41.2083 87.283C41.0076 87.0379 40.7752 86.8219 40.5178 86.6404C40.357 86.527 40.1866 86.4271 40.008 86.3419C39.5443 86.1207 39.0376 86.0043 38.5239 86.0011V85.9981L24 85.998ZM38.5103 87.9983L29.8151 87.9982L37.9842 90.9045L37.9835 90.9065C38.1776 90.9782 38.3847 91.0089 38.5916 90.9964C38.8115 90.9833 39.0258 90.9217 39.2193 90.8162C39.4127 90.7106 39.5805 90.5637 39.7106 90.3859C39.8408 90.2081 39.9302 90.0037 39.9723 89.7874C40.0145 89.571 40.0085 89.3481 39.9546 89.1344C39.9008 88.9206 39.8005 88.7214 39.6608 88.5509C39.5212 88.3804 39.3457 88.2428 39.1468 88.1479C38.9483 88.0532 38.7312 88.0034 38.5112 88.002L38.5103 88.002L38.5103 88.0016L38.5103 87.9983ZM43.018 78.2481L43.0172 78.2486L42.0336 76.5072L42.0325 76.5051L42.0345 76.504C42.567 76.2035 43.1613 76.0291 43.7718 75.9942C43.8603 75.9891 43.9489 75.987 44.0373 75.9878C44.559 75.9927 45.0757 76.0996 45.5579 76.3036C46.1218 76.5421 46.6234 76.9069 47.0241 77.3699C47.4248 77.8329 47.7139 78.3817 47.8692 78.974C48.0245 79.5664 48.0417 80.1865 47.9197 80.7866C47.7976 81.3867 47.5395 81.9508 47.1651 82.4353C46.8451 82.8497 46.4474 83.1964 45.9952 83.4568C45.9185 83.5009 45.8403 83.5425 45.7606 83.5816C45.2108 83.8512 44.6066 83.9909 43.9944 83.99V83.9897H24V81.9897H43.9972L43.9972 81.9876C44.303 81.988 44.6049 81.9182 44.8795 81.7836C45.1541 81.6489 45.3941 81.453 45.5811 81.2109C45.7681 80.9689 45.897 80.6871 45.958 80.3874C46.019 80.0876 46.0104 79.7778 45.9328 79.4819C45.8552 79.186 45.7108 78.9119 45.5106 78.6806C45.3105 78.4493 45.0599 78.2671 44.7782 78.1479C44.4966 78.0288 44.1913 77.9759 43.886 77.9934C43.581 78.0108 43.2841 78.098 43.018 78.2481Z" fill="url(#paint0_linear_8_1359)"/>
<defs>
<linearGradient id="paint0_linear_8_1359" x1="36" y1="74" x2="36" y2="93.0001" gradientUnits="userSpaceOnUse">
<stop stop-color="#CED3EA"/>
<stop offset="1" stop-color="#7E83A9"/>
</linearGradient>
</defs>
</svg>
